<svg xmlns="http://www.w3.org/2000/svg" xmlns:xlink="http://www.w3.org/1999/xlink" viewBox="0 0 1000 1000"><defs><clipPath id="clip-path"><rect x="57.16" y="161.37" width="885.68" height="689.19" style="fill:none"/></clipPath><clipPath id="clip-path-2"><path d="M297.14,343.19s86.06-49.33,184.71-5.25c0,0,10.89-44.77-8.39-80.81,0,0-116.5-42.13-181.57,19.87C286.64,291.77,297.14,343.19,297.14,343.19Z" style="fill:none"/></clipPath></defs><title>Design</title><g style="isolation:isolate"><g id="Layer_2" data-name="Layer 2"><g style="clip-path:url(#clip-path)"><path d="M625.39,768.25s4.71,36.59,0,45.94-3.77,22.22-3.77,22.22-53.09-.31-51.2-34.08S577.64,771.08,625.39,768.25Z" style="fill:#e8ac6b"/><path d="M847.52,556.48c-3.69-18-13.23-25.05-6.36-28.38,10.06-4.87,17.67,18.55,17.67,18.55s5.72-9,8.42-13.83c3.52-6.29,6.74-25.93,13.34-25.77,6.94.18-.58,17.9-1.89,24.74,1.89-7.75,8.85-24.38,14.92-23.28,5.89,1.06-1.65,15.94-4.06,23.28,2.62-6.73,9.22-20.46,15.71-19.33,9.11,1.58-8.37,31.9-8.37,31.9s13.46-19.61,18.4-16.26c4.4,3-3.54,15.07-14.61,31.65-4.36,11.43-14.24,21.32-24,27.56-9,6.07-6.26,19.76-6.26,19.76l-29.06-23.25S850.37,570.4,847.52,556.48Z" style="fill:#f1c58d"/><path d="M887.11,560s5.27-6.18,9.79-17.6" style="fill:none;stroke:#f1c58d;stroke-linecap:round;stroke-linejoin:round;stroke-width:2.5082950227351px;mix-blend-mode:multiply"/><path d="M881.41,553a73.77,73.77,0,0,0,8.15-19.66" style="fill:none;stroke:#f1c58d;stroke-linecap:round;stroke-linejoin:round;stroke-width:2.5082950227351px;mix-blend-mode:multiply"/><path d="M872.63,546.65s2.35-6.54,6.07-14.86" style="fill:none;stroke:#f1c58d;stroke-linecap:round;stroke-linejoin:round;stroke-width:2.5082950227351px;mix-blend-mode:multiply"/><path d="M889.56,567.19c-6-9.8-13.16-17.54-23.22-20.54" style="fill:none;stroke:#f1c58d;stroke-linecap:round;stroke-linejoin:round;stroke-width:2.5082950227351px;mix-blend-mode:multiply"/><path d="M810.14,922.55c-75.17,41.91-225-2.2-225-2.2,11.07-37.9-.71-96,6.15-155.28,5.58-48.53,12.83-88.43,12.83-88.43l-.08-27.25,16.11-8.25,130.87-66.82,38.43,52.31S802.2,686.55,809.76,758c.39,3.25.71,6.62,1,9.94C816,820.86,803.72,881,810.14,922.55Z" style="fill:#abddde"/><path d="M809.76,758c1.74,18.62.88,27.09.88,27.09l-16.7-43.48s-91.78,240.07-186-2.32a165.25,165.25,0,0,1-18,42.52c5.57-48.54,14.3-105.2,14.3-105.2l-.08-27.25,16.11-8.25,130.87-66.82,38.43,52.31S802.2,686.55,809.76,758Z" style="fill:#12abb9;opacity:0.5;mix-blend-mode:multiply"/><path d="M808.18,683.1c3.27,37.48-.16,80.47-.16,80.47l-12.4-55.4s-.16.5-.5,1.42c-.16.39-.34.86-.53,1.41-.05.16-.1.29-.15.45-7.38,19.58-47.88,120.28-99.16,120.83-17,.18-41.15-19.63-61-49.74a.49.49,0,0,1-.13-.18,217.53,217.53,0,0,1-30.63-72.56,327.81,327.81,0,0,0-7.35,40.1l-6.34,31.94-14.78-3c-14.82-70.7,20-254.94,53.21-247-12.72-4-54.45-20.26-50.7-64.44.52-6.6,1.46-14.17,2.77-22.33C589.63,389.2,608,305.8,701.19,308.5c72.8,6.91,108.72,73.66,111.34,124.79v.6c.23,4.53.28,8.95.15,13.19v.05c-.39,19.69-3.82,35.42-8.27,41.86-13.85,20.32-35.44,35.92-41.18,39.9,4.51-2.7,29.74-5.76,38.67,40.44,2,10.71,4.84,26.91,7.59,43.19,4.06,24.19,7.91,48.51,8.82,55.08C818.91,671.89,807.84,678.54,808.18,683.1Z" style="fill:#12abb9"/><path d="M596.69,596.78l0,0a12.67,12.67,0,0,1,.1,3.59A23.43,23.43,0,0,0,596.69,596.78Z" style="fill:#a77df6;opacity:0.7000000000000001;mix-blend-mode:multiply"/><path d="M801.79,569.33c2,10.71,4.87,26.92,7.58,43.2-11.08-13.71-4.24-91.62-90.83-83.06,72.31-6.08,89.84-56.68,94.06-82.32-.42,19.66-3.85,35.4-8.28,41.85-13.87,20.31-35.46,35.9-41.21,39.89C767.66,526.2,792.89,523.13,801.79,569.33Z" style="fill:#12abb9;opacity:0.5;mix-blend-mode:multiply"/><path d="M697.16,518.12c-75.69,0-93-46.1-78.84-102.92a114.23,114.23,0,0,1,3.43-11.27,110.29,110.29,0,0,1,7-15.23c.51-1,1.07-1.92,1.63-2.85a104.72,104.72,0,0,1,6.26-9.46A121.7,121.7,0,0,1,659.32,353a.07.07,0,0,0,.07-.07c19.08-15.14,37-20.91,37-20.91s.18.07.49.23a6.76,6.76,0,0,1,.69.42c.23.11.56.3.93.53a223,223,0,0,1,32.67,24.7,157.77,157.77,0,0,1,17,18.31c.25.31.48.63.71,1l0,0A94.14,94.14,0,0,1,757,389.42q1.58,2.82,2.9,5.7a66.86,66.86,0,0,1,3.48,9.28c0,.07.07.11.07.18C775.49,445.7,772.48,518.12,697.16,518.12Z" style="fill:#f1c58d"/><path d="M759.93,395.12c-1.64,0-4.24-.53-8-1.83-21.59-7.4-92.06-5.75-123.14-4.59.51-1,1.07-1.92,1.63-2.85a104.72,104.72,0,0,1,6.26-9.46l106-4.71s2.76,2.32,6.21,5.5l0,0A94.14,94.14,0,0,1,757,389.42Q758.61,392.24,759.93,395.12Z" style="fill:#f1c58d;opacity:0.5;mix-blend-mode:multiply"/><path d="M757,389.42c-43.83-12.51-101.9-12.76-126.66-3.58a119.86,119.86,0,0,1,29-32.84,0,0,0,0,0,0-.06c19.09-15.14,37-20.91,37-20.91a3.36,3.36,0,0,1,.49.23c.19.12.44.24.69.42a7.75,7.75,0,0,1,.94.53,224.83,224.83,0,0,1,32.68,24.7,157.71,157.71,0,0,1,17,18.31A97.77,97.77,0,0,1,757,389.42Z" style="fill:#abddde"/><path d="M757,389.42c-43.83-12.51-101.9-12.76-126.66-3.58a119.86,119.86,0,0,1,29-32.84c-5.24,7.75-14.34,21.12,1.9,20.93,24.41-.32,69.06.26,75.87-.33,3.08-.27-.47-8.12-5.88-15.69a157.71,157.71,0,0,1,17,18.31A97.77,97.77,0,0,1,757,389.42Z" style="fill:#12abb9;opacity:0.5;mix-blend-mode:multiply"/><path d="M631,413s10-17.77,33-13.7c7,.75,6.26,6.52-.12,4.86C650.32,400.64,636.46,407.71,631,413Z" style="fill:#2e0000"/><path d="M746.56,413.63S735.75,396.34,713,401.47c-7,1.08-6,6.8.34,4.86C726.69,402.19,740.86,408.61,746.56,413.63Z" style="fill:#2e0000"/><path d="M733.4,429.75c-1.9-5.41-3.77-9.52-10-9.33a13.88,13.88,0,0,0-8.56,3.5c-4.48,3.75-5.18,8.81-5.05,14.32" style="fill:none;stroke:#2e0000;stroke-linecap:round;stroke-linejoin:round;stroke-width:4.63773689928927px"/><path d="M673.11,482.26c6.38,9.83,32.14,6.24,38.26-2" style="fill:none;stroke:#7e1200;stroke-linecap:round;stroke-linejoin:round;stroke-width:3.74662194867662px"/><path d="M641.11,431.9c1.65-5.5,3.33-9.69,9.55-9.79a13.89,13.89,0,0,1,8.72,3.1c4.65,3.54,5.58,8.56,5.71,14.07" style="fill:none;stroke:#2e0000;stroke-linecap:round;stroke-linejoin:round;stroke-width:4.63773689928927px"/><path d="M698,455a10.5,10.5,0,0,0-9.26-4.24,11.64,11.64,0,0,0-8.76,5.94" style="fill:none;stroke:#f1c58d;stroke-linecap:round;stroke-linejoin:round;stroke-width:2.45957181333095px;mix-blend-mode:multiply"/><path d="M808,763.57l-12.4-55.4s-.16.5-.5,1.42c-.16.39-.34.86-.53,1.41-.05.16-.1.29-.15.45-7.38,19.58-47.88,120.28-99.16,120.83-17,.18-41.15-19.63-61-49.74a.49.49,0,0,1-.13-.18c-10.18-18.24-20.42-42.07-30.63-72.56-5.08,19.63,24.09-134.92,25.11-138.93L610.49,702.44C689.86,920.76,778.57,774.51,782.42,678c-10.15-54-15.36-107.19-15.36-107.19l36.78,126.88C807.11,735.16,808,763.57,808,763.57Z" style="fill:#12abb9;opacity:0.5;mix-blend-mode:multiply"/><path d="M795.44,629.07l47.82-61.82s26,31.2,35.83,33.1c-22.2,40.91-51.15,96.25-82.78,67.61" style="fill:#12abb9"/><path d="M557.94,809.56s4.21,32.66,0,41-3.36,19.84-3.36,19.84-47.38-.28-45.7-30.42S515.33,812.08,557.94,809.56Z" style="fill:#e8ac6b"/><path d="M522.71,483.47a379,379,0,0,0-44.35-24.32c-12.17-5.61-25.65-10.89-38.75-14.2v-8.07H347.74v6.93c-14.61,3.13-29.95,9.05-43.65,15.38a374.5,374.5,0,0,0-44.35,24.28c-21.63,62.17-43.28,187.74-32.56,187.94l32.93-24,0,0,9.63-7,.06-.33,1.84,46.58-.41,27.24-2.18,143c39.95,11.18,80.2,11,121.35,11,21.27,0,42.57.44,63.8-.93a282.16,282.16,0,0,0,31.48-3.62c2.24-.39,27.69-5,27.69-6.48l-.31-20.92-.24-15.56,47.87-4.62C571.41,815.52,544.36,545.64,522.71,483.47Z" style="fill:#12abb9"/><path d="M179,495.87c10.82-17.3,16.09-43.51,5.18-44.77s-21.43,30.64-21.43,30.64-12.53-11.94-12.1-19.87,3.18-38.25-10.17-35c-9.7,2.36-8.17,23.69-6.28,33.52-2.72-11.14-8.66-36.27-17.38-34.69-8.46,1.53-1.69,24.14,1.77,34.69-3.76-9.68-13.24-29.4-22.56-27.78-13.09,2.27,6.14,49.07,6.14,49.07S84.5,452.61,76.69,456.16,90.32,506,121.9,539c12.93,8.71,24.24,29.61,24.24,29.61l41.75-33.41S168.19,513.17,179,495.87Z" style="fill:#e8b782"/><path d="M115.09,503.53s-7.56-8.89-14.06-25.29" style="fill:none;stroke:#f1c58d;stroke-linecap:round;stroke-linejoin:round;stroke-width:3.60416357084215px;mix-blend-mode:multiply"/><path d="M130.31,490.88a105.92,105.92,0,0,1-11.71-28.25" style="fill:none;stroke:#f1c58d;stroke-linecap:round;stroke-linejoin:round;stroke-width:3.60416357084215px;mix-blend-mode:multiply"/><path d="M142.93,481.74s-3.37-9.39-8.72-21.35" style="fill:none;stroke:#f1c58d;stroke-linecap:round;stroke-linejoin:round;stroke-width:3.60416357084215px;mix-blend-mode:multiply"/><path d="M118.6,511.25c8.58-14.08,18.92-25.2,33.37-29.51" style="fill:none;stroke:#f1c58d;stroke-linecap:round;stroke-linejoin:round;stroke-width:3.60416357084215px;mix-blend-mode:multiply"/><path d="M478.56,466.83c0,60.35-87.34,109.28-87.34,109.28s-87.34-48.93-87.34-109.28c0-2.57.07-5.11.21-7.64,5.49-2.55,11.26-5,17.12-7.26a177.6,177.6,0,0,1,26.53-8.12v-6.93h91.87V445c4.43,1.12,8.9,2.46,13.35,4a261.31,261.31,0,0,1,25.4,10.23C478.5,461.67,478.56,464.24,478.56,466.83Z" style="fill:#abddde"/><path d="M478.36,459.15c.14,2.52.2,5.09.2,7.68,0,60.35-87.34,109.28-87.34,109.28s-87.34-48.93-87.34-109.28c0-2.57.07-5.11.21-7.64" style="fill:none;stroke:#200;stroke-miterlimit:10;stroke-width:2.06965297145797px"/><path d="M456,450c-4.31,4.89-12.7,7.78-18,11.26A187.93,187.93,0,0,1,411.8,475.6c-8.06,3.65-16.54,6.73-25.23,6.83s-17-2.67-25.23-5.61c-14.74-5.29-30.16-12.06-40.13-24.89a177.6,177.6,0,0,1,26.53-8.12v-6.93h91.87V445C444,446.07,451.57,448.47,456,450Z" style="fill:#12abb9;opacity:0.5;mix-blend-mode:multiply"/><path d="M386.31,463.13c2,8.73.85,17.87,1.23,26.74,0,1,0,2,.07,3.06q.13,7.54.23,15.1.38,27.87.68,55.74.41,35.44.79,70.89.33,31.71.64,63.42c.11,10.84-.23,21.79.27,32.62,0,.27,0,.53,0,.79,0,.64,2,.9,2,.38.24-9.13-.12-18.31-.2-27.44q-.29-30.46-.62-60.95-.37-35.84-.79-71.66-.33-29.39-.7-58.75c-.16-11.68-.57-23.39-.45-35.07a61.56,61.56,0,0,0-1.18-14.72c-.13-.56-2.15-.77-2-.15Z" style="fill:#200"/><path d="M380.85,467.43c0,.63,0,2,0,4.13" style="fill:none;stroke:#200;stroke-miterlimit:10;stroke-width:2.06965297145797px"/><path d="M380.8,479.82c-.23,46.42-1.16,205.46-1.39,243.59" style="fill:none;stroke:#200;stroke-miterlimit:10;stroke-width:2.06965297145797px;stroke-dasharray:8.257383346557617,8.257383346557617"/><path d="M379.39,727.55c0,2.68,0,4.13,0,4.13" style="fill:none;stroke:#200;stroke-miterlimit:10;stroke-width:2.06965297145797px"/><path d="M397.74,463.45c0,.8,0,2.2,0,4.14" style="fill:none;stroke:#200;stroke-miterlimit:10;stroke-width:2.06965297145797px"/><path d="M397.86,476c.55,47.41,2.86,207.39,3.29,247.38" style="fill:none;stroke:#200;stroke-miterlimit:10;stroke-width:2.06965297145797px;stroke-dasharray:8.386159896850586,8.386159896850586"/><path d="M401.19,727.55c0,1.93,0,3.33,0,4.13" style="fill:none;stroke:#200;stroke-miterlimit:10;stroke-width:2.06965297145797px"/><path d="M512.71,640.32l-.26-1.68L497.17,537.42s-.52,260.42-3.44,274.1c-7.36,34.57-192.1,41.29-205,0-4.21-13.5-3.45-274.1-3.45-274.1L270.12,638l-.36,2.31.06-.33,1.84,46.59-.41,27.24h0l-2.18,143c4.37,1.22,8.8,2.36,13.33,3.39,2.84.64,5.71,1.26,8.63,1.84s5.69,1.16,8.63,1.62c8.53,1.45,17.12,2.5,25.71,3.17,3.83.31,7.63.53,11.46.7q7,.29,13.89.25l-.06,0h88.95v-.08c6.31-.15,12.65-.48,19-1,0,0,.06,0,.08,0,9.52-1.1,17.12-2,21.59-2.65,1-.14,1.88-.27,2.57-.39,2.91-.46,5.79-1,8.61-1.62s5.81-1.2,8.63-1.84c4.55-1,9-2.17,13.34-3.39l-2.58-170.25Z" style="fill:#12abb9;opacity:0.5;mix-blend-mode:multiply"/><path d="M258.3,640.32,186.19,521.53s-34.15,45-47.63,48.29c33.48,55.4,45.65,163.33,121,124.59,9.45-13.51,14-31.39,10.53-56.4Z" style="fill:#12abb9"/><path d="M496.75,374.61a70.76,70.76,0,0,1-2.49,13.25c-1.67,5.61-4.11,11.21-8.31,14.34-3.15,2.33-10.06,3.13-15.57,4.62h0c-.18,1.68-.4,3.31-.62,5,0,.18,0,.42-.08.6-.75,5.7-1.58,11.49-3.72,16.72-4.24,10.41-13,17.46-21.87,23.2a187.6,187.6,0,0,1-26.19,14.38c-8.05,3.64-16.53,6.72-25.23,6.82s-17-2.66-25.24-5.61c-16.7-6-34.32-13.91-43.81-30.44-3.63-6.35-5.82-13.54-7.66-20.82a13.91,13.91,0,0,1-1.44.09,21.47,21.47,0,0,1-17.67-8.63c-5.68-7.33-7.65-18.44-5.29-28.06.83-3.41,2.32-6.82,4.9-8.73,4.07-3,13.05-.33,14.8,4.9-2.05-15.36-6.05-30.86-6.14-46.36l-2.14.47a22.18,22.18,0,0,1,6.86-3.09c49.55-15.26,101.63-16.06,153-15.64,4.2.05,9,.38,11.64,4.07,2.05,2.89,2.1,6.9,2,10.59q-.6,21.93-2.36,43.84c.08,0,3.71-6.35,5.68-8.63,2.28-2.67,5.16-5.14,8.35-5s6.13,3,7.48,6.63S497.05,370.73,496.75,374.61Z" style="fill:#e8ac6b"/><path d="M355.94,332c10.47-3.88,21.31-7,32.39-7.42,10.06-.39,20.08,1.43,30,3.5,19.71,4.13,39.44,9.38,57.28,19.21,1.34.74,3.27,1.36,4.11,0a3.2,3.2,0,0,0,.34-1.76,33.27,33.27,0,0,0-5.3-17,43.85,43.85,0,0,0-16.56-15.77c-9.27-5-19.89-6.16-30.25-6.67-38.06-1.9-83.81-1.93-115.31,21-3.88,2.82-5.18,13.86-4.92,19.68.32,7.14,5.6,4.75,9.56,2.71A356.24,356.24,0,0,1,355.94,332Z" style="fill:#e8ac6b;opacity:0.5;mix-blend-mode:multiply"/><path d="M304.93,391.75A20.49,20.49,0,0,1,306,396.9c.16,1.51-.09,3.19.55,4.59.78,1.68,2.6,2.48,4.29,3s3.53.87,4.82,2.15a110.48,110.48,0,0,0-6.59-16.67,17.83,17.83,0,0,0-2.64-4.2c-2.49-2.71-8.77-4.36-11.32-.94C302.3,384.78,304.19,389.83,304.93,391.75Z" style="fill:#e8ac6b;mix-blend-mode:multiply"/><path d="M471.59,374.33c2.92-3.63,6.67-13.3,11.51-15.24.22-.09-1.57-17.14-2.38-25.9-3.54,1.29-10-2-13.7-2.75C467.23,331.86,471.85,362.93,471.59,374.33Z" style="fill:#200"/><path d="M310.44,334.12c-1.87,14,2.9,30.59,3.16,44.81-7.51-12.26-16.07-8.22-16.07-8.22s.34-27.89,1.15-38.83A16.73,16.73,0,0,0,309.74,333l-.62,5.3Z" style="fill:#2e0000"/><path d="M297.14,343.19s86.06-49.33,184.71-5.25c0,0,10.89-44.77-8.39-80.81,0,0-116.5-42.13-181.57,19.87C286.64,291.77,297.14,343.19,297.14,343.19Z" style="fill:#12abb9"/><g style="clip-path:url(#clip-path-2)"><path d="M376.49,222.56c-12.35,4.58-23.95,12.12-31.28,23.06s-9.82,25.56-4.45,37.59a44,44,0,0,0,10.56,14c16.95,15.68,40.9,21.34,63.92,23s46.32-.12,69.13,3.42c4.07.63,8.23,1.47,11.7,3.68s6.17,6.09,5.89,10.19c-.31,4.45-3.9,8-7.69,10.34-6.69,4.16-14.55,6-22.32,7.35-42.41,7.19-85.78-.2-128.79-.49-15-.09-30.44.59-44.39-4.86a53.32,53.32,0,0,1-24.52-19.51,18.8,18.8,0,0,1-3.56-8.2,22.32,22.32,0,0,1,.6-6.8q2.82-14.57,6.31-29c1-4.31,2.17-8.68,4.41-12.5a41.94,41.94,0,0,1,7.31-8.65c11.94-11.51,25.61-21.44,41-27.67s32.53-8.6,48.74-5.12" style="fill:none"/><path d="M300.26,267.37a13.57,13.57,0,0,1,1.6,11.53c-.84,3.07-3.61,5.94-2.84,9.43,1.53,7,11.57,8.71,13.77,15.44,2.64,8.06-6.51,12.56-3.92,20.3,1,3,3.79,4.51,4.6,7.45,1.09,4-1.35,6.8-4.06,8.74" style="fill:none"/><path d="M322.85,248.79c0,4.44-2.63,8.51-3.49,12.82a36.11,36.11,0,0,0-.37,13.51c1.86,9,16.61,10.31,15.38,19.61-.79,6-7.28,9.11-8.3,14.81a12.69,12.69,0,0,0,3.52,10.72c2.88,3.18,15,13.17,7.73,18.64" style="fill:none"/><path d="M313.84,285.9c.13,2.61.28,15.37,5.72,9.14,3.31-3.81-.53-9.29-4.23-9.22" style="fill:none"/><path d="M311.48,260.43c-2.8-1.41-5,7.85-2.37,9.27,3.73,2,5.22-5.83,3.53-8.48" style="fill:none"/><path d="M322.41,323.85c-1.75,1.94-3.57,10.42.95,7.83,2.54-1.45,3.48-8.36,1.18-10.06" style="fill:none"/><path d="M347,248.29a16.52,16.52,0,0,1,.66,12.88c-1.09,3.31-4.08,6.26-3.61,10.17,1,7.87,10.82,10.6,12.47,18.23,2,9.11-7.52,13.32-5.56,22.09.76,3.4,3.4,5.3,4,8.61.76,4.49-1.9,7.41-4.76,9.33" style="fill:none"/><path d="M371.05,229.65c-.35,4.91-3.32,9.19-4.53,13.88a44.16,44.16,0,0,0-1.47,14.9c1.12,10.14,15.71,12.78,13.73,22.94-1.28,6.57-8,9.47-9.49,15.68a15.16,15.16,0,0,0,2.64,12.14c2.6,3.75,13.82,15.8,6.18,21.24" style="fill:none"/><path d="M359,269.9c-.09,2.89-1,17,4.95,10.58,3.61-3.93.23-10.31-3.46-10.54" style="fill:none"/><path d="M358.77,241.56c-2.68-1.79-5.63,8.25-3.13,10,3.56,2.55,5.68-6,4.21-9.06" style="fill:none"/><path d="M364.48,312.55c-1.9,2-4.41,11.21.3,8.73,2.65-1.39,4.16-8.94,2-11" style="fill:none"/><path d="M392,243.08a16.5,16.5,0,0,1,.66,12.87c-1.09,3.32-4.08,6.26-3.6,10.18,1,7.87,10.82,10.59,12.47,18.22,2,9.12-7.53,13.32-5.57,22.09.76,3.4,3.41,5.31,4,8.62.77,4.48-1.9,7.4-4.76,9.32" style="fill:none"/><path d="M416,224.44c-.34,4.9-3.32,9.18-4.52,13.87a43.91,43.91,0,0,0-1.48,14.9c1.12,10.15,15.71,12.78,13.73,23-1.28,6.57-8,9.46-9.48,15.67A15.19,15.19,0,0,0,416.88,304c2.61,3.75,13.83,15.79,6.18,21.23" style="fill:none"/><path d="M404,264.68c-.08,2.9-1,17,4.95,10.58,3.61-3.92.23-10.31-3.46-10.53" style="fill:none"/><path d="M403.72,236.35c-2.68-1.79-5.63,8.25-3.13,10,3.56,2.54,5.69-6,4.22-9.07" style="fill:none"/><path d="M409.43,307.34c-1.9,2-4.41,11.2.3,8.73,2.66-1.4,4.16-8.95,2-11" style="fill:none"/><path d="M440,248.11a16.5,16.5,0,0,1,.66,12.87c-1.09,3.32-4.09,6.27-3.61,10.18,1,7.87,10.82,10.6,12.47,18.22,2,9.12-7.52,13.32-5.57,22.09.76,3.41,3.41,5.31,4,8.62.77,4.49-1.9,7.41-4.76,9.33" style="fill:none"/><path d="M464,233.61c-.34,4.91-3.32,9.18-4.52,13.87A44.25,44.25,0,0,0,458,262.39c1.12,10.14,15.72,12.77,13.73,22.94-1.28,6.57-8,9.46-9.48,15.68a15.17,15.17,0,0,0,2.63,12.14c2.61,3.75,13.83,15.79,6.18,21.24" style="fill:none"/><path d="M452,273.86c-.08,2.89-1,17,4.95,10.57,3.62-3.92.23-10.3-3.46-10.53" style="fill:none"/><path d="M451.74,245.52c-2.68-1.79-5.63,8.25-3.12,10,3.56,2.55,5.68-6,4.21-9.06" style="fill:none"/><path d="M457.45,316.51c-1.9,2-4.41,11.21.31,8.73,2.65-1.39,4.16-8.95,2-11" style="fill:none"/></g><path d="M423.49,364.42c-1,2.62-2.43,6.69-.49,9.27a5.8,5.8,0,0,0,5.53,1.86c2.43-.69,3.42-4,3.32-6.25s-1.35-5.48-3.43-6.74c-1.59-1-3.84-1.14-4.59.83-.93,2.44-1,6.66.39,8.95.74,1.23,3.06,2.78,4.41,1.57,2.1-1.88,1.13-6.22.06-8.26-.28-.53-3.33-1.92-3.33-.89l0,6c0,1.15,3.33,1.84,3.33,1.09l0-6-3.33-.89a8.16,8.16,0,0,1,1.11,4.12c0,.42-.73,3.44-.64,3.44l2,.77c-1.88-1.57-1.2-5.46-.89-7.47a7.64,7.64,0,0,0,.31-1.57c0-.14-1-1.67-.58-.68.52,1.27,1.37,2.2,1.67,3.6a7.29,7.29,0,0,1,0,3.38c-.18.65-.89,2.74-1.62,2.93-2.69.68-.25-7,.15-8s-2.95-2.05-3.33-1.09Z" style="fill:#2e0000"/><path d="M349.83,365.94c.68,1.71,2.59,6.78.6,8.37-.58.47-.71,0-1.12-.69a7.18,7.18,0,0,1-.85-1.87,7.3,7.3,0,0,1-.11-3.22,9.81,9.81,0,0,1,1.35-3.32,5.91,5.91,0,0,1,.45-.66c.49-.57.25-.52-.73.17-.14.25.26,1.47.3,1.79a20.49,20.49,0,0,1,.25,3.23,8.3,8.3,0,0,1-.28,2.05s-.66,1.71-.39,1.68l2.17.42c-2-1.92-1.23-5.65-.13-7.74l-3.45-.06,0,6c0,1,3.5.9,3.5-.13l0-6c0-1-3.08-.75-3.44-.06-1.18,2.24-2,6.14-.05,8.28,1,1.12,3.28.8,4.26-.2,2-2,1.61-7,.76-9.39-.66-1.84-2.74-2.24-4.5-1.6-4.64,1.7-5.15,11.36-.18,13,1.71.57,4.44.23,5.57-1.32,1.9-2.6.42-6.63-.62-9.24-.34-.86-3.78-.55-3.36.5Z" style="fill:#2e0000"/><path d="M398.79,389.48c1.32-6.87-7-7.14-9.81-6.42s-6.91,1.65-6.34,7" style="fill:none;stroke:#e8ac6b;stroke-linecap:round;stroke-linejoin:round;stroke-width:1.6845919052852px;mix-blend-mode:multiply"/><path d="M372.76,421.45c8,6,16.14,6.45,22.73,5.67s8.95-1.4,15.05-6.76" style="fill:none;stroke:#7e1200;stroke-linecap:round;stroke-linejoin:round;stroke-width:3.34396168536276px"/><path d="M470.38,406.82c-.09,1.12-.26,2.24-.44,3.36-.09.51-.17,1.08-.22,1.64,0,.18,0,.42-.08.6-.75,5.7-1.58,11.49-3.72,16.72-4.24,10.41-13,17.46-21.87,23.2a187.6,187.6,0,0,1-26.19,14.38c-8.05,3.64-16.53,6.72-25.23,6.82s-17-2.66-25.24-5.61c-16.7-6-34.32-13.91-43.81-30.44-3.63-6.35-5.82-13.54-7.66-20.82a13.91,13.91,0,0,1-1.44.09c0-1.16,0-2.33,0-3.5a211.93,211.93,0,0,0-4.86-41.74l2.69,2.13c4.38,20,12.36,43.86,26,58.38,10.84,11.54,28,22.33,43,25.31,3.82.75,8.95-5.91,12.85-5.89,5.16,0,9,6.44,14,5.2,14.43-3.6,28.06-13.27,38.49-24.62,14-15.27,24.76-64.51,24.76-64.51l2.34,1.11S471.68,397.13,470.38,406.82Z" style="fill:#200"/><path d="M450.74,347.53c-1.18-2.09-1.36-5-3.37-6.46-7-5.13-17.91-6.8-23.58-6.68a5.64,5.64,0,0,0-3.6,1.47L416,339.58Z" style="fill:#2e0000"/><path d="M329.19,347.53c1.19-2.09,1.37-5,3.38-6.46,7-5.13,17.91-6.8,23.58-6.68a5.64,5.64,0,0,1,3.6,1.47l4.21,3.72Z" style="fill:#2e0000"/><path d="M481.64,380.45a20.05,20.05,0,0,0-1.1,5.15c-.16,1.51.09,3.19-.56,4.59-.78,1.68-2.59,2.48-4.29,3s-3.53.87-4.81,2.15a108.91,108.91,0,0,1,6.59-16.66,17.1,17.1,0,0,1,2.63-4.2c2.49-2.71,8.77-4.36,11.32-.95C484.27,373.48,482.38,378.53,481.64,380.45Z" style="fill:#e8ac6b;mix-blend-mode:multiply"/></g><line x1="152.58" y1="850.56" x2="874.8" y2="850.56" style="fill:none;stroke:#200;stroke-linecap:round;stroke-linejoin:round;stroke-width:2.06965297145797px"/></g></g></svg>