<svg xmlns="http://www.w3.org/2000/svg" xmlns:xlink="http://www.w3.org/1999/xlink" viewBox="0 0 1000 1000"><defs><clipPath id="clip-path"><rect x="98.58" y="98.58" width="383.8" height="383.8" rx="48.48" style="fill:none"/></clipPath><clipPath id="clip-path-2"><rect x="517.62" y="517.62" width="383.8" height="383.8" rx="48.48" style="fill:none"/></clipPath><clipPath id="clip-path-3"><rect x="517.62" y="98.58" width="383.8" height="383.8" rx="48.48" style="fill:none"/></clipPath><clipPath id="clip-path-4"><path d="M860.84,196.61s-71.2-42.1-152.64-9.11c0,0-3.44-34.77,11.95-64,0,0,92.16-34.26,146.58,19.44C870.81,155.27,860.84,196.61,860.84,196.61Z" style="fill:none"/></clipPath><clipPath id="clip-path-5"><rect x="98.58" y="517.62" width="383.8" height="383.8" rx="48.48" style="fill:none"/></clipPath></defs><title>Design</title><g style="isolation:isolate"><g id="Layer_2" data-name="Layer 2"><rect x="98.58" y="98.58" width="383.8" height="383.8" rx="48.48" style="fill:#faf3e9"/><rect x="129.36" y="127.18" width="100.8" height="33.95" rx="2.89" style="fill:none;stroke:#e71e25;stroke-linecap:round;stroke-linejoin:round"/><path d="M168.63,150.67h6.67v3.93H163.54V133.7h5.09Z" style="fill:#e71e25"/><path d="M182.83,133.7v20.9h-5.09V133.7Z" style="fill:#e71e25"/><path d="M206.14,133.7l-7.41,20.9h-6.37l-7.42-20.9h5.42l5.18,15.78,5.21-15.78Z" style="fill:#e71e25"/><path d="M213.34,137.78V142h6.82v3.93h-6.82v4.58h7.71v4.08h-12.8V133.7h12.8v4.08Z" style="fill:#e71e25"/><circle cx="146.94" cy="144.15" r="8.46" style="fill:#e71e25"/><g style="clip-path:url(#clip-path)"><polygon points="396.87 484.27 381 461.57 333.86 484.27 396.87 484.27" style="fill:#1982c4"/><path d="M226.85,302.78a45.38,45.38,0,0,0,22.71,11.3S229,336.45,227.68,364.53c-.58,12.66-9.61,64.93-18.32,119.74h219.8c-8.81-45-18.68-95.13-20.55-106.19-9.11-54-14.13-108.81-39.22-159.55a121,121,0,0,0-12.46-20.06c-14.78-19.34-35.44-34.42-58.6-38.27-14-2.36-28.92-.54-44,6.86-15.47,7.6-27.91,20.12-37,34.79a85.43,85.43,0,0,0-9.53,20.84c-4,13.83-3.63,28.67-.53,42.73S216.39,293.11,226.85,302.78Z" style="fill:#ffcd05"/><path d="M381.83,484.27c-15.9-32.21-26.65-151.18-36.75-200.44-15.28-74.51-50.19-87.39-36.22-74.88s15.57,34.18,15.23,71.88-81,24.94-81,24.94l-7,3.59a43.72,43.72,0,0,0,13.49,4.72s49.74,27.61,85.6-10.81l12.37,99.11c-.42-.4-32.3-12.35-32.75-12.76-27.26-25.24-29,94.65-29,94.65l32.54-.06s14.93-103.7,40.87-41l7.05,41.07Z" style="fill:#ffcd05;opacity:0.5;mix-blend-mode:multiply"/><path d="M275,315.44a27.23,27.23,0,0,1-4.61-.38C234,308.94,226.06,291.45,224,272.18c-1.7-15.87,1.43-32.53,3.7-41.82,1.13-4.57,2-7.37,2-7.37,24.82-17.57,53.38-22.7,89.35-3.7A174.11,174.11,0,0,1,325.72,254C327.87,282.57,320.54,315.32,275,315.44Z" style="fill:#f1c58d"/><path d="M325.72,254c-1.15-10.14-2.08-15.26-17.53-24.75-21.38-13.11-66.7-8.55-80.51,1.1,1.13-4.57,2-7.37,2-7.37,24.82-17.57,53.38-22.7,89.35-3.7A174.11,174.11,0,0,1,325.72,254Z" style="fill:#f1c58d;opacity:0.5;mix-blend-mode:multiply"/><path d="M320.24,223s-57.81-16.94-90.5,0a60.18,60.18,0,0,1,3-15c10.29-29.51,41.35-30,41.35-30,18.17.65,29.92,12.83,37,24.37l.1.12A83,83,0,0,1,320.24,223Z" style="fill:#e71e25"/><path d="M290.84,252.48c-.93,1.86-2,4.77-.31,6.56a5.34,5.34,0,0,0,5.11,1c4-1.5,2.86-7.52-.47-9.1-1.16-.55-3.19-.73-3.93.58a7.28,7.28,0,0,0,.17,6.28c.7,1.1,2.53,2.11,3.79,1.26,1.95-1.33,1.16-4.48.1-6-.29-.42-2.76-1.15-2.75-.27l.05,4.22c0,.87,2.78,1.13,2.77.43l0-4.22-2.75-.28c1,1.45,1.72,4.13,0,5.44l1-.24-.35,0,1.33.35c-1.57-1-1.13-3.78-.86-5.28a12,12,0,0,0,.41-1.31l-.58-.12.38.41a9.63,9.63,0,0,1,1.41,2.47,4,4,0,0,1-.07,2.3,3.69,3.69,0,0,1-.78,1.34c-.33.3-1.17.8-1.63.43-.65-.53-.46-2.28-.31-3a11.14,11.14,0,0,1,1.07-2.74c.27-.53-2.36-1.26-2.78-.43Z" style="fill:#2e0000"/><path d="M247.91,253.22c.65,1.29,2.13,4.49.64,5.77-1.92,1.65-2.67-2.44-2.32-3.69A6.29,6.29,0,0,1,247.5,253a3.51,3.51,0,0,1,.37-.41c.34-.25.23-.38-.36-.38a6,6,0,0,0,.33,1.36,10.45,10.45,0,0,1,.17,2.62c0,.52-.38,2.36-1,2.42l1.88.4c-1.64-1.24-.89-3.91,0-5.28l-2.72-.44,0,4.22c0,.84,2.77,1,2.78.3l0-4.22c0-.8-2.35-1-2.72-.44-1.15,1.68-1.75,4.42,0,6a2.64,2.64,0,0,0,4-.77,7.66,7.66,0,0,0,.12-6c-.58-1.4-2.73-1.72-4-1.24-1.59.6-2.8,2.82-3,4.44a4.65,4.65,0,0,0,2.47,4.59c1.48.71,4.08.81,5.28-.51,1.64-1.81.47-4.73-.44-6.55-.37-.73-3.06-.69-2.72,0Z" style="fill:#2e0000"/><path d="M312.22,240.56a11.13,11.13,0,0,0-3.49-4.06c-4.83-3.31-16.75-4.78-22.43-4.25-1.32.12-3,1.75-2,3.44S296.64,231.76,312.22,240.56Z" style="fill:#2e0000"/><path d="M230.82,241.31s7.51-12.67,24-9.35c5.06.67,4.42,4.82-.16,3.52C245,232.71,234.85,237.59,230.82,241.31Z" style="fill:#2e0000"/><path d="M270.12,269.1c-2.24,1.8-3.88,5.15-1.62,7.65,1.91,2.1,5,1.81,7.32.62.37-.19-1.16-1-1.68-.73-1.1.57-2.6,1.14-3.78.4a3.4,3.4,0,0,1-1.11-2.72,5.88,5.88,0,0,1,2.55-4.49c.39-.32-1.24-1.09-1.68-.73Z" style="fill:#d39b5e"/><path d="M285.46,295.07a1.91,1.91,0,0,1-.28.4,14.08,14.08,0,0,1-4.34,3.5,17.11,17.11,0,0,1-4.29,1.61,15.24,15.24,0,0,1-2.4.34h-.07c-3.46.13-6.69-.07-9.81-1.56a9.28,9.28,0,0,1-4.53-5,5.26,5.26,0,0,1-.52-3.41,2.94,2.94,0,0,1,1.81-2.39,5,5,0,0,1,4.08-.41c3.18.73,6.55,2.58,10.34,1.21,2-.71,4-2.22,6.25-2.31a4.54,4.54,0,0,1,4.37,3.23C286.72,292,286.19,293.5,285.46,295.07Z" style="fill:#200"/><path d="M285.41,295.09c.14.07-.16.26-.25.39a13.82,13.82,0,0,1-4.32,3.49,17.71,17.71,0,0,1-4.3,1.62c-.26.07-.45.05-.77.11s-1.34.17-1.56.21l-.12,0a21.23,21.23,0,0,1-9.84-1.53,2.85,2.85,0,0,0,.35-.17,24.25,24.25,0,0,1,4-2.43,28.77,28.77,0,0,1,13.25-2.61A9.5,9.5,0,0,1,285.41,295.09Z" style="fill:#cb1d00"/><path d="M261.07,288.33a3.21,3.21,0,0,0-1.84,2.62,4.78,4.78,0,0,0,.54,3.43c4.2,7.43,13.31,8,21,4.59a10.74,10.74,0,0,0,4.41-3.53,5.47,5.47,0,0,0,.92-5.13,4.53,4.53,0,0,0-4.33-3.25c-2.1.05-4.54,1.83-6.19,2.29-4.23,1.19-7.08-.47-10.41-1.2C263,287.68,262.37,287.72,261.07,288.33Z" style="fill:none;stroke:#7e1200;stroke-miterlimit:10;stroke-width:0.867931472954597px"/><path d="M351.78,348.09c.83-1.83,1.64-3.67,1.4-5.72-1.06-3-4.8-5.05-8-4.58a5.45,5.45,0,0,0-2.82,1.29c-.27.5-.51,1-.73,1.52-.21-.72-.41-1.44-.59-2.16.77-3,1.58-6,2.39-8.94,1.46-5.31,6.06-11.95,4.83-17.35-4.19-18.33-20.54,28.69-22,33.59,1.51-53.2-12.19-38.9-11.69-33.24-.43,8.41-.71,16.84-1.06,25.24-.19,4.66-.4,9.31-.66,13.94,0,.28,0,.55,0,.83-1.57,3.32-4.86,6-6.38,9.45a8.85,8.85,0,0,0-.82,3.72c.23,7.21,2,15,6.7,20.67l.3.35.51,1.58a2.29,2.29,0,0,0,1.62,1.34l.22,0,1,.11,4.1.47,11,1.26.23,0,9.69,1.11h0a6.78,6.78,0,0,0,6-2.52,28.49,28.49,0,0,0,1.51-4.12c.1-.35.19-.71.28-1.07,6.84-9.08,10.12-20.74,13.65-31.5C364,347.09,355,343.22,351.78,348.09Z" style="fill:#f1c58d"/><path d="M312.11,353.51s24.06-10.51,24.68-4.45-11.11,13.76-20.8,18.2" style="fill:none;stroke:#f1c58d;stroke-linecap:round;stroke-linejoin:round;stroke-width:1.47458447320566px;mix-blend-mode:multiply"/><path d="M333.27,357.78s3.41,18.92,18.53-10" style="fill:none;stroke:#f1c58d;stroke-linecap:round;stroke-linejoin:round;stroke-width:1.47458447320566px;mix-blend-mode:multiply"/><path d="M337.88,349.06a80,80,0,0,0,4.12-9.18" style="fill:none;stroke:#f1c58d;stroke-linecap:round;stroke-linejoin:round;stroke-width:1.47458447320566px;mix-blend-mode:multiply"/><path d="M343.6,363.8s3,15.5,17.6-11.75" style="fill:none;stroke:#f1c58d;stroke-linecap:round;stroke-linejoin:round;stroke-width:1.47458447320566px;mix-blend-mode:multiply"/><path d="M320.24,223s-57.81-16.94-90.5,0a60.18,60.18,0,0,1,3-15c3.8,1.25,11.71,2.43,27.84,2.67,52.35.82,50.52-8.27,50.52-8.27l.1.12A83,83,0,0,1,320.24,223Z" style="fill:#e71e25;mix-blend-mode:multiply"/><path d="M362.93,465.52s-13.78,19.43-31.32,19.1,20.55-54.95,20.55-54.95,4,3.83,7.34,15.24A85.56,85.56,0,0,1,362.93,465.52Z" style="fill:#ff595e"/><path d="M362.93,465.52s-13.78,19.43-31.32,19.1,20.55-54.95,20.55-54.95,4,3.83,7.34,15.24A85.56,85.56,0,0,1,362.93,465.52Z" style="fill:#e71e25;mix-blend-mode:multiply"/><path d="M351.81,455.69c0,40.73-55.81,40.15-53.49-6.11,0,0-1.11-29.74,4.47-56.13a116.06,116.06,0,0,1,3.41-12.94s30.23,9.84,45.28,5.17c.27,5,.48,9.76.68,14.16C353.89,442.33,351.81,455.69,351.81,455.69Z" style="fill:#e71e25"/><path d="M352.16,399.84c-16.92,5.37-40.42-2.78-49.37-6.39a116.06,116.06,0,0,1,3.41-12.94s30.23,9.84,45.28,5.17C351.75,390.72,352,395.44,352.16,399.84Z" style="fill:#e71e25;mix-blend-mode:multiply"/><path d="M195.75,362.24c4.38,10.43,8.6,21.79,16.14,30.3.12.35.24.7.37,1a28.76,28.76,0,0,0,1.83,4,6.8,6.8,0,0,0,6.23,2h0l9.56-1.88.23,0,10.91-2.14,4.05-.8.95-.19a.79.79,0,0,0,.22-.06,2.24,2.24,0,0,0,1.5-1.46l.39-1.62.27-.37c4.23-6,5.37-13.94,5-21.14a8.71,8.71,0,0,0-1.11-3.64c-1.8-3.3-5.29-5.73-7.12-8.91,0-.27-.07-.55-.11-.82-.63-4.6-1.21-9.22-1.78-13.85-1-8.34-2-16.72-3.08-25.07.05-5.68-14.76-18.84-9,34.08-1.81-4.78-21.89-50.33-24.59-31.72-.79,5.48,4.32,11.73,6.21,16.91,1.05,2.9,2.1,5.8,3.1,8.71-.12.74-.26,1.47-.41,2.2a15.34,15.34,0,0,0-.86-1.45,5.31,5.31,0,0,0-2.91-1.06c-3.23-.21-6.79,2.12-7.61,5.21-.07,2.06.89,3.82,1.86,5.59C202.43,351.46,193.77,356.05,195.75,362.24Z" style="fill:#f1c58d"/><path d="M246,358.27s-24.83-8.54-25-2.46,12.18,12.83,22.2,16.47" style="fill:none;stroke:#f1c58d;stroke-linecap:round;stroke-linejoin:round;stroke-width:1.47458447320566px;mix-blend-mode:multiply"/><path d="M225.29,364.22s-.52,20.42-19.27-8.51" style="fill:none;stroke:#f1c58d;stroke-linecap:round;stroke-linejoin:round;stroke-width:1.47458447320566px;mix-blend-mode:multiply"/><path d="M220,355.9a78.85,78.85,0,0,1-4.85-8.82" style="fill:none;stroke:#f1c58d;stroke-linecap:round;stroke-linejoin:round;stroke-width:1.47458447320566px;mix-blend-mode:multiply"/><path d="M215.48,371.05s-3.94,20-18.49-10.29" style="fill:none;stroke:#f1c58d;stroke-linecap:round;stroke-linejoin:round;stroke-width:1.47458447320566px;mix-blend-mode:multiply"/><path d="M214.68,463.3c5.32,38.6,59.3,27.35,52.83-10.38,0,0-1.29-29.73-9-55.59a112.87,112.87,0,0,0-4.44-12.62s-29.34,12.23-44.72,8.79c.14,5.05.31,9.76.46,14.17C211.53,450.16,214.68,463.3,214.68,463.3Z" style="fill:#e71e25"/><path d="M209.84,407.67c17.3,4,40.07-6,48.7-10.34a112.87,112.87,0,0,0-4.44-12.62s-29.34,12.23-44.72,8.79C209.52,398.55,209.69,403.26,209.84,407.67Z" style="fill:#e71e25;mix-blend-mode:multiply"/></g><rect x="517.62" y="98.58" width="383.8" height="383.8" rx="48.48" style="fill:#faf3e9"/><rect x="548.41" y="127.18" width="100.8" height="33.95" rx="2.89" style="fill:none;stroke:#e71e25;stroke-linecap:round;stroke-linejoin:round"/><path d="M587.68,150.67h6.67v3.93H582.59V133.7h5.09Z" style="fill:#e71e25"/><path d="M601.88,133.7v20.9h-5.09V133.7Z" style="fill:#e71e25"/><path d="M625.18,133.7l-7.41,20.9H611.4L604,133.7h5.42l5.18,15.78,5.21-15.78Z" style="fill:#e71e25"/><path d="M632.39,137.78V142h6.81v3.93h-6.81v4.58h7.71v4.08H627.3V133.7h12.8v4.08Z" style="fill:#e71e25"/><circle cx="565.98" cy="144.15" r="8.46" style="fill:#e71e25"/><rect x="517.62" y="517.62" width="383.8" height="383.8" rx="48.48" style="fill:#faf3e9"/><rect x="548.41" y="546.22" width="100.8" height="33.95" rx="2.89" style="fill:none;stroke:#e71e25;stroke-linecap:round;stroke-linejoin:round"/><path d="M587.68,569.71h6.67v3.93H582.59V552.75h5.09Z" style="fill:#e71e25"/><path d="M601.88,552.75v20.89h-5.09V552.75Z" style="fill:#e71e25"/><path d="M625.18,552.75l-7.41,20.89H611.4L604,552.75h5.42l5.18,15.77,5.21-15.77Z" style="fill:#e71e25"/><path d="M632.39,556.83v4.22h6.81V565h-6.81v4.59h7.71v4.07H627.3V552.75h12.8v4.08Z" style="fill:#e71e25"/><circle cx="565.98" cy="563.2" r="8.46" style="fill:#e71e25"/><rect x="98.58" y="517.62" width="383.8" height="383.8" rx="48.48" style="fill:#faf3e9"/><rect x="129.36" y="546.22" width="100.8" height="33.95" rx="2.89" style="fill:none;stroke:#e71e25;stroke-linecap:round;stroke-linejoin:round"/><path d="M168.63,569.71h6.67v3.93H163.54V552.75h5.09Z" style="fill:#e71e25"/><path d="M182.83,552.75v20.89h-5.09V552.75Z" style="fill:#e71e25"/><path d="M206.14,552.75l-7.41,20.89h-6.37l-7.42-20.89h5.42l5.18,15.77,5.21-15.77Z" style="fill:#e71e25"/><path d="M213.34,556.83v4.22h6.82V565h-6.82v4.59h7.71v4.07h-12.8V552.75h12.8v4.08Z" style="fill:#e71e25"/><circle cx="146.94" cy="563.2" r="8.46" style="fill:#e71e25"/><path d="M227.32,719.37l-1.49,1.46a3,3,0,0,0-1,1s0,0,0,0c-4.9,5.61-1.18,17.6-.89,18.54-1-1-7.81-9.35-9.95-11.42Z" style="fill:#919598"/><g style="clip-path:url(#clip-path-2)"><path d="M877.21,642.42a8.82,8.82,0,0,0-11.08-4s-13.48-7.48-16.26,4.38c-8.59,3.29-11.13,26-5.72,35.48-3.9,11.45-15.25,43.28-24.9,55.5-11.86,15,12.39,27.52,12.39,27.52s40.06-48,40.47-74.69c11.53-.52,21-9.53,23.35-21.63C897,657.25,900.67,648.57,877.21,642.42Z" style="fill:#f1c38b"/><path d="M855.31,648.21a32.83,32.83,0,0,1,4.52-5.86,20.61,20.61,0,0,1,5.59-3.68" style="fill:none;stroke:#f1c58d;stroke-linecap:round;stroke-linejoin:round;stroke-width:1.47458447320566px;mix-blend-mode:multiply"/><path d="M849.52,643.79a32.62,32.62,0,0,1,6.18,4.09c1.45,1.15,10.72,9.76,8.21,13.91,0,0-7.75,7.49-15.8-7.21" style="fill:none;stroke:#f1c58d;stroke-linecap:round;stroke-linejoin:round;stroke-width:1.47458447320566px;mix-blend-mode:multiply"/><path d="M862.9,654a33.48,33.48,0,0,1,4.52-5.87c1.26-1.36,7.46-4.53,9.14-5.3" style="fill:none;stroke:#f1c58d;stroke-linecap:round;stroke-linejoin:round;stroke-width:1.47458447320566px;mix-blend-mode:multiply"/><path d="M863.91,661.79c6.85,5.15,12.59-5.11,14.46-7.14,1.26-1.36,8.52-5.42,10.21-6.19" style="fill:none;stroke:#f1c58d;stroke-linecap:round;stroke-linejoin:round;stroke-width:1.47458447320566px;mix-blend-mode:multiply"/><path d="M890.85,665.82a15.66,15.66,0,0,0-.23-3.06,5.1,5.1,0,0,0-1.41-2.68s-9.7,12.48-17.21,3.21" style="fill:none;stroke:#f1c58d;stroke-linecap:round;stroke-linejoin:round;stroke-width:1.47458447320566px;mix-blend-mode:multiply"/><path d="M782.8,841.08C770,858.6,758.62,874,751.24,884c-5.15,7-8.37,11.35-8.83,12-1.29,1.88-4.92-1.42-8.89-8-10.67-17.74-23.72-59.37,0-88.38,9.86-12,27.86-32.14,46.47-53.07,26.51-29.86,50.69-55.93,57.82-68.16,5,3.7,22.45,11.9,27.3,15.51,9.26,6.9.39,2.06,9.21,9.52C876.33,705.09,822.1,787.52,782.8,841.08Z" style="fill:#f9da60"/><path d="M782.8,841.08C770,858.6,758.62,874,751.24,884l-17.72,4c-10.67-17.74-23.72-59.37,0-88.38,9.86-12,27.86-32.14,46.47-53.07Z" style="fill:#f7b64d"/><path d="M762.12,876.44c-67.51,194.67-135.3,90.35-163.83,29.47-8.94-19.09-14-33.92-14-33.92-19-27.81-23-78.67-19.14-114.82.05-.65.12-1.3.22-1.93a136.79,136.79,0,0,1,4.71-24c1.68-5.41,1.25-12.17,2.4-19.16,7-41.83,28.15-101.73,86.54-114.75a111.1,111.1,0,0,1,28-2.55c62.45,5.94,82.35,63.36,84.59,107.2l0,.53C772.68,724.5,770.44,852.45,762.12,876.44Z" style="fill:#ef4a90"/><path d="M762.12,876.44c-67.51,194.67-135.3,90.35-163.83,29.47a102,102,0,0,1,12.26,4.63C700.3,950.3,740.85,791,740.85,791s-86.41,88-134.24-36c0-.65.19-9.76.28-10.38C696.36,840.38,716.94,752,716.94,752,751,728.25,684.7,632.05,659,597.3a111.1,111.1,0,0,1,28-2.55c62.45,5.94,82.35,63.36,84.59,107.2l0,.53C772.68,724.5,770.44,852.45,762.12,876.44Z" style="fill:#ef4a90;opacity:0.5;mix-blend-mode:multiply"/><path d="M673.43,791c-54,3.7-82.58-35.35-68.29-104.51a73.24,73.24,0,0,1,2.93-9.68c.76-2,1.56-4,2.48-5.94a85.29,85.29,0,0,1,4.92-9.58,96.27,96.27,0,0,1,5.36-8.1,105.38,105.38,0,0,1,19.45-20.08c.07,0,.07,0,.07,0a112.1,112.1,0,0,1,31.78-17.94,1.42,1.42,0,0,1,.39.2,4.52,4.52,0,0,1,.6.36,6.71,6.71,0,0,1,.82.43,197,197,0,0,1,28,21.21c3.21,3,6.44,6.24,9.52,9.68,1.75,1.91,3.43,3.93,5,6a88.21,88.21,0,0,1,7.6,11.33,60.44,60.44,0,0,1,4.42,9.71c.4,1,.73,2.08,1,3.14,0,.06.06.1.06.16C751,732.06,727.43,787.26,673.43,791Z" style="fill:#f1c38b"/><path d="M728.54,674c-67.8-23.6-102-4.33-118-3.2a85.29,85.29,0,0,1,4.92-9.58,96.27,96.27,0,0,1,5.36-8.1L711.47,647c1.75,1.91,3.43,3.93,5,6a88.21,88.21,0,0,1,7.6,11.33A60.44,60.44,0,0,1,728.54,674Z" style="fill:#f1c38b;opacity:0.5;mix-blend-mode:multiply"/><path d="M724.11,664.32c-37.6-10.73-87.41-10.94-108.65-3.06a102.75,102.75,0,0,1,24.83-28.17.06.06,0,0,0,.05-.06,112.42,112.42,0,0,1,31.77-17.94,2.3,2.3,0,0,1,.43.21c.16.1.37.2.58.35a6.18,6.18,0,0,1,.81.46,191.61,191.61,0,0,1,28,21.19A134.46,134.46,0,0,1,716.52,653,84.71,84.71,0,0,1,724.11,664.32Z" style="fill:#f9da60"/><path d="M724.11,664.32c-37.6-10.73-87.41-10.94-108.65-3.06a102.75,102.75,0,0,1,24.83-28.17C635.8,639.73,628,651.2,641.92,651c20.94-.28,59.24.22,65.09-.29,2.64-.23-.41-7-5-13.45A134.46,134.46,0,0,1,716.52,653,84.71,84.71,0,0,1,724.11,664.32Z" style="fill:#f7b64d"/><path d="M616.29,686.48s8.57-15.25,28.28-11.76c6,.65,5.37,5.6-.1,4.18C632.86,675.89,621,682,616.29,686.48Z" style="fill:#2e0000"/><path d="M715.13,685.09s-9.27-14.83-28.8-10.43c-6,.92-5.1,5.84.29,4.17C698.08,675.28,710.24,680.78,715.13,685.09Z" style="fill:#2e0000"/><path d="M696.19,747.6a5.69,5.69,0,0,1-.61.9,31.16,31.16,0,0,1-9.42,8,38.76,38.76,0,0,1-9.43,3.8,35.62,35.62,0,0,1-5.31.87l-.15,0c-7.64.45-14.81.16-21.79-3-5.22-2.34-8-6.16-10.29-10.85-1.12-2.31-1.93-5.1-1.33-7.53s1-4,3.88-5.38,4.42-2.07,9-1.12c7.08,1.45,14.64,5.39,23,2.16,4.32-1.68,8.79-5.13,13.74-5.44s8.32,3.12,9.84,6.92S697.71,744.09,696.19,747.6Z" style="fill:#200"/><path d="M696.06,747.64c.33.15-.33.59-.53.88a30.35,30.35,0,0,1-9.38,8,38.3,38.3,0,0,1-9.44,3.81c-.58.17-1,.13-1.7.28s-3,.46-3.44.55l-.26,0c-7.82.61-14.68,0-21.87-2.87a6.61,6.61,0,0,0,.75-.4c2.91-2,5.26-4,8.65-5.58,9.19-4.24,18.74-6.8,29.21-6.47A21.33,21.33,0,0,1,696.06,747.64Z" style="fill:#cb1d00"/><path d="M641.81,733.92c-2.85,1.41-3.41,3.46-3.93,5.91a10.54,10.54,0,0,0,1.37,7.57c9.67,16.23,29.89,17,46.65,9.09a23.83,23.83,0,0,0,9.59-8A12.15,12.15,0,0,0,697.27,737a10,10,0,0,0-9.77-7c-4.64.22-10,4.28-13.59,5.39-9.3,2.85-15.69-.69-23.11-2.13C646,732.4,644.66,732.52,641.81,733.92Z" style="fill:none;stroke:#7e1200;stroke-miterlimit:10;stroke-width:1.92276775852937px"/><path d="M673.43,720.56a9,9,0,0,0-7.94-3.65A10,10,0,0,0,658,722" style="fill:none;stroke:#f1c58d;stroke-linecap:round;stroke-linejoin:round;stroke-width:2.10980730800902px;mix-blend-mode:multiply"/><path d="M592.48,831.56c1.35-.75,1.55-2.72.84-4.08s-2.8-5.7-4.09-6.54c4.45-2.47,2.28-9.57-2.65-10.91a9.31,9.31,0,0,0,3.72-4,5,5,0,0,0-.64-5.23c-1.23-1.35-3.21-1.68-5-1.8A37.82,37.82,0,0,0,565,803.14a72.25,72.25,0,0,0-6.92,4.27c-3.06,2.05-6.17,4.18-8.37,7.13a24.44,24.44,0,0,0-3.78,8.55c-2.16,8.33-2,17.13-.66,25.65.64,4.16,2.88,6.83,4.13,10.54,1.37,4.08.6,11.41,3.38,15.54,7.83,11.7,27.76,8.21,33.37,4.11-1.06-3.83-8.62-19.89-10.28-23.49a16.57,16.57,0,0,0,1.53-5.31h0c2.38,4.22,7.64,3.32,10.26,1.56C599.12,844,594.39,832.77,592.48,831.56Z" style="fill:#f1c38b"/><path d="M592.48,831.56c-4.43-6.07-10.65,2.48-12.74,3.71" style="fill:none;stroke:#f1c58d;stroke-linecap:round;stroke-linejoin:round;stroke-width:1.29224074378026px;mix-blend-mode:multiply"/><path d="M581.33,845.55c-1,3.27-2.53,3.29-4.64,4" style="fill:none;stroke:#f1c58d;stroke-linecap:round;stroke-linejoin:round;stroke-width:1.29224074378026px;mix-blend-mode:multiply"/><path d="M589.43,821.44c-4.42-6.07-11.85,1.07-13.94,2.29" style="fill:none;stroke:#f1c58d;stroke-linecap:round;stroke-linejoin:round;stroke-width:1.29224074378026px;mix-blend-mode:multiply"/><path d="M588.31,810.86c-4.43-6.06-11.86,1.08-13.95,2.3" style="fill:none;stroke:#f1c58d;stroke-linecap:round;stroke-linejoin:round;stroke-width:1.29224074378026px;mix-blend-mode:multiply"/><path d="M601.51,902.08c-3.87,7.5-13.68,8.61-21.18,8.46-17.25-.31-27-7.54-32.35-16.68v0c-9.57-16.23-5.43-38.39-5.43-38.39l.84-.41a18.5,18.5,0,0,0,9.52,2.09c3.29,0,6.56-.6,9.83-.91a129.84,129.84,0,0,1,17.31-.05,24.12,24.12,0,0,0,2.69,0c.84-.05,1.82-.46,2.62-.44s.72.12,1.18.65.81,1.16,1.2,1.71c1.25,1.78,2.43,3.61,3.58,5.43a96.08,96.08,0,0,1,9.54,19.21,40.84,40.84,0,0,1,2.26,10.12A17,17,0,0,1,601.51,902.08Z" style="fill:#f9da60"/><path d="M694.76,699.45c-.16,3-.61,5.92.46,8.78.22.59,1.63.82,2.13.57,2.79-1.4,3-5.52,2-8.13-.9-2.36-4.15-3.69-5.66-1.1-1,1.8-1.66,6.06.65,7.19,2.53,1.25,3.88-.74,3.79-3.09-.09-2.06-1.37-3.85-3.66-3.45-1.7.29-2.14,2.29-2.22,3.76-.09,1.72.24,3.86,1.78,4.9a4.3,4.3,0,0,0,5.26-.41c1.54-1.73,1.41-5.25.7-7.28a4.1,4.1,0,0,0-5.52-2.4c-.79.3,1.33,1.13,1.93.9,2-.78,1.94,6.87.53,8.2a2.27,2.27,0,0,1-1,.55c-.44.09,0,.28-.39-.16a4.13,4.13,0,0,1-.78-1.81,7.29,7.29,0,0,1,.22-4c.2-.51.75-.85.92-1.24-.7-.28-.87-.22-.51.19a2.78,2.78,0,0,1,.16.4,4.7,4.7,0,0,1,.23,1.33,5.21,5.21,0,0,1-.08,1.37c0,.25-.5,1.08-.47,1.24-.31.25-.19.31.36.2a2.8,2.8,0,0,1-.23-.63c0-.58-.17-1.2-.15-1.8a8.11,8.11,0,0,1,.4-2.49c.09-.27.73-1.94,1.24-1.82-.33-.08.37,1.73.41,1.86.56,2.14.38,5.67-1.88,6.8l2.12.56c-1-2.77-.58-5.64-.43-8.51,0-.74-2.32-1.1-2.35-.5Z" style="fill:#2e0000"/><path d="M633.57,699.45c-.16,3-.61,5.92.46,8.78.22.59,1.62.82,2.13.57,2.79-1.4,3.05-5.52,2.05-8.13-.9-2.36-4.15-3.69-5.66-1.1-1,1.8-1.66,6.06.65,7.19,2.53,1.25,3.88-.74,3.78-3.09-.08-2.06-1.36-3.85-3.65-3.45-1.7.29-2.14,2.29-2.22,3.76-.09,1.72.23,3.86,1.77,4.9a4.32,4.32,0,0,0,5.27-.41c1.54-1.73,1.41-5.25.69-7.28a4.09,4.09,0,0,0-5.51-2.4c-.79.3,1.33,1.13,1.93.9,2-.78,1.94,6.87.53,8.2a2.27,2.27,0,0,1-1,.55c-.45.09,0,.28-.39-.16a3.92,3.92,0,0,1-.78-1.81,7.19,7.19,0,0,1,.22-4c.2-.51.75-.85.92-1.24-.7-.28-.87-.22-.51.19a2.78,2.78,0,0,1,.16.4,4.7,4.7,0,0,1,.23,1.33,5.68,5.68,0,0,1-.08,1.37c0,.25-.5,1.08-.47,1.24-.31.25-.19.31.36.2a3.41,3.41,0,0,1-.24-.63c0-.58-.16-1.2-.14-1.8a8.11,8.11,0,0,1,.4-2.49c.09-.27.73-1.94,1.24-1.82-.33-.08.37,1.73.41,1.86.56,2.14.37,5.67-1.88,6.8l2.12.56c-1-2.77-.58-5.64-.43-8.51,0-.74-2.32-1.1-2.35-.5Z" style="fill:#2e0000"/><path d="M603.12,892.88a17,17,0,0,1-1.61,9.2c-3.87,7.5-13.68,8.61-21.18,8.46-17.25-.31-27-7.54-32.35-16.68v0C567.36,903.1,581.7,903.57,603.12,892.88Z" style="fill:#f7b64d"/></g><g style="clip-path:url(#clip-path-3)"><path d="M868.67,411s6.28-54-24.49-89.64c-14.06-16.3-39.91-41.46-70-29.57-66,26.06-74,152.53-106.34,196.09l40-9.77-10.92,77.77-2.7,19.29C730.67,593.67,774,599.08,815.76,592c2.09-.32,4.14-.69,6.14-1.14s4.14-.86,6.15-1.31c3.23-.74,6.39-1.56,9.5-2.42l18-89.8,2.3-11.45a44.84,44.84,0,0,0,11-6.16Z" style="fill:#a5cd3a"/><polygon points="702.72 500.85 695.19 496.05 734.09 347.97 702.72 500.85" style="fill:#a5cd3a;opacity:0.5;mix-blend-mode:multiply"/><g style="mix-blend-mode:multiply"><path d="M777.13,298.8c-.24,10.28-2.37,20.35-4.11,30.45-1.27,7.33-2.13,14.72-2.87,22.13-1.5,14.94-2.59,29.92-3.64,44.89-.09,1.25,3.93,1.91,4,.86,1.05-15,2.13-29.95,3.63-44.89.74-7.41,1.61-14.8,2.88-22.14,1.74-10.1,3.87-20.16,4.11-30.44,0-1.28-4-1.86-4-.86Z" style="fill:#739942"/></g><path d="M694.18,575.16C730.67,593.67,774,599.08,815.76,592c2.09-.32,4.14-.69,6.14-1.14s4.14-.86,6.15-1.31c3.23-.74,6.38-1.56,9.5-2.42l18-89.8-18.42-45.48-.32-86.12-8,116.86L810.31,457s14,89.18,13.23,97.89c-2.45,27.11-77,30.31-126.66,1Z" style="fill:#a5cd3a;opacity:0.5;mix-blend-mode:multiply"/><path d="M794.52,414.86s-6.54-22.19,5.79-21.39,1,24.46,7.86,31.62" style="fill:#824e3e"/><path d="M835.77,455.59s-30.66-42.29-45.51-42.29c-8.85,0-22.72,6.8-14,19.93-6.17,5.7.66,12.28.66,12.28s-2,8.68,3.4,10.36c-1.37,6.07,6.72,7.53,9.85,7.07,11.72,8,18.16,8.63,25,5.58,0,0,2.28,5.16,3.52,5.61S842.4,472.94,835.77,455.59Z" style="fill:#824e3e"/><path d="M792.63,422.41s-10.4,4.29-15.75,10.89" style="fill:none;stroke:#f1c58d;stroke-linecap:round;stroke-linejoin:round;stroke-width:1.63801299664187px;mix-blend-mode:multiply"/><path d="M807,424.07s-6.47-5.1-12.43-9.21" style="fill:none;stroke:#f1c58d;stroke-linecap:round;stroke-linejoin:round;stroke-width:1.63801299664187px;mix-blend-mode:multiply"/><path d="M792.67,433.14s-9.64,5-15,11.64" style="fill:none;stroke:#f1c58d;stroke-linecap:round;stroke-linejoin:round;stroke-width:1.63801299664187px;mix-blend-mode:multiply"/><path d="M798,441.26s-11.61,7.93-17,14.53" style="fill:none;stroke:#f1c58d;stroke-linecap:round;stroke-linejoin:round;stroke-width:1.63801299664187px;mix-blend-mode:multiply"/><path d="M814.89,471.42l19.2,25.86c8.08,7.26,29,2.17,34.37-7.31,5.2-9.25,4.52-23.62-36.45-43C828.27,455.54,822.56,467.18,814.89,471.42Z" style="fill:#a5cd3a"/><g style="mix-blend-mode:multiply"><path d="M835.88,451.87c.88,2.44,1.5,4.17-.87,5.86s-4.67,3.15-5.49,6c-.77,2.71,1.13,7.2-2.46,8.26-2.67.78-5.3.92-7.78,2.32-1.37.77,2.3,2.14,3.26,1.59a17.52,17.52,0,0,1,5.13-1.76,13.2,13.2,0,0,0,3.78-1c2.79-1.55,1.51-5.24,1.92-7.78.62-3.89,3.89-4.72,6.31-7.12,1.78-1.78.89-3.9.15-6-.41-1.13-4.33-1.53-4-.46Z" style="fill:#739942"/></g><path d="M825.6,297.87c.69,1.32,2.06,2.06,4.53,1.71,2-.3,4-1.14,6-1.46,2.57-.42,5.21,0,7.81-.2,1.44-.12,3-.55,3.77-1.79,1.12-1.84-.23-4.34.55-6.35,1.33-3.44,7.67-3.17,8.12-6.83.17-1.37-.67-2.63-1.25-3.88-1.83-3.91-.28-7,.18-10.84.12-1.08-.81-11.4-.23-11.63-3.12,1.23-11.58-2.39-14.76-3.23-1-.26-8.84,16.45-9.38,17.68a68.46,68.46,0,0,0-5,16.55C825.43,290.65,824.27,295.33,825.6,297.87Z" style="fill:#2e0000"/><path d="M738.43,287.69c-1.2-15.21-2.46-30.7-8.21-44.82-2.07-5.1-4.75-10.08-5.41-15.54a9,9,0,0,0-.48-2.42,7.27,7.27,0,0,0-.84-1.42c-.25-15.51-1.83-28.39-1.73-29.46-3.29.87-6.41,2.28-9.74,3-1.11.25-3.72-.07-4.59.38l-.13.11-.17-.22-.14-.05c0,.16,0,.36,0,.54-1.33,1.3-2.29,4.84-3,6.35a9.68,9.68,0,0,0-1.2,4.16c.05,2.19,1.53,4,2.61,5.93s1.71,4.5.25,6.13c-.56.62-1.43,1.17-1.37,2a2.06,2.06,0,0,0,.75,1.23l1.82,1.84c0,2.2,0,3.58,0,3.58a11.83,11.83,0,0,1,3.45.1A3.38,3.38,0,0,1,711,231c0,1.4-1.09,2.52-2.08,3.51-2.46,2.45-4.75,5.37-5.18,8.81-1,8,8,14.39,7.66,22.42-.12,2.83-1.44,5.72-.55,8.41,1,3.07,4.37,4.56,6.6,6.9,3,3.1,2.37,11.37,6.06,13.55,3.1,1.83,8.69-2.27,12.22-3a2.85,2.85,0,0,0,2.66-3.88Z" style="fill:#2e0000"/><path d="M703.69,221.65c5.84-2.92,10,7.33,10.17,7.9-.21-4.36-.64-13.34-.75-17.72s-.21-8.72-.2-13.07c0-1.37,0-2.71,0-4.09,0-3,.14-6.29,2-8.61,2.38-2.94,6.58-3.09,10.25-3,2.09.06,4.15.08,6.25.14,41.48,1,83.31,3.24,123.06,15.3,1.28.38,2.53.76,3.82,1.18a20.31,20.31,0,0,1,5.92,2.69l-1.86-.43c-.44,12.66-4.32,25.23-6.47,37.73,1.65-4.23,9.57-6.18,13-3.63,2.2,1.62,3.42,4.45,4.07,7.25,1.83,7.92-.15,17-5.28,22.8a19.23,19.23,0,0,1-15.62,6.62c-.42,0-.84-.07-1.26-.12-1.77,5.91-3.85,11.73-7.16,16.83-7,10.72-17.46,16.3-29.08,20.51-13.16,4.74-27.09,8.42-41.21,7a85.3,85.3,0,0,1-16.51-3.49c-11.85-3.63-21.17-13-29.34-22.36-6.1-7-13.73-30.81-13.73-30.81s-2.53.3-5.75-2.12C704.44,255.49,696.29,225.35,703.69,221.65Z" style="fill:#824e3e"/><path d="M712.91,198.76c0,4.35.21,4.72.31,9.07,0,0,64.24-27.35,138,9.81,3.43,1.72,8,3.85,8.42-2,.37-4.76-.52-13.8-3.81-16.22-.45-.32-.9-.64-1.38-1-26.92-18.57-66.07-19.66-98.74-19.07-8.25.14-16.71.74-24.32,3.77a23,23,0,0,0-2.24.93,37.28,37.28,0,0,0-14.83,12.44A25.65,25.65,0,0,0,712.91,198.76Z" style="fill:#f1c58d;opacity:0.5;mix-blend-mode:multiply"/><path d="M861,252.49a15.43,15.43,0,0,0-1.09,4.18c-.18,1.23,0,2.61-.59,3.73-.72,1.36-2.32,2-3.82,2.32s-3.1.63-4.24,1.65a86.37,86.37,0,0,1,6.13-13.46,14.34,14.34,0,0,1,2.4-3.37c2.24-2.15,7.76-3.34,9.9-.48C863.43,246.86,861.66,250.94,861,252.49Z" style="fill:#f1c58d;opacity:0.5;mix-blend-mode:multiply"/><path d="M847.71,262.3c5.73-28.07,12.51-27.11,20.3-26.88-.93-1.54-2.88-2.72-2.68-4.83.32-3.33,5.83-4.24,6-7.57.11-1.91-1.66-3.33-3.23-4.41a1.9,1.9,0,0,1-.67-.65c-.38-.74.26-1.55.75-2.2,2.5-3.29,1.92-9.62-2.05-11.61-1.91-1-4.83-1-6.92-1.66s-4.06-1.46-6.15-2C853.21,201.93,846.22,240.27,847.71,262.3Z" style="fill:#2e0000"/><path d="M860.84,196.61s-71.2-42.1-152.64-9.11c0,0-4.73-34.31,10.66-63.5,0,0,93.45-34.72,147.87,19C870.81,155.27,860.84,196.61,860.84,196.61Z" style="fill:#a5cd3a"/><g style="clip-path:url(#clip-path-4)"><path d="M888.48,132c.14.58.26,1.17.39,1.75q2.57,11.92,4.53,23.83a17.12,17.12,0,0,1,.31,5.52,14.8,14.8,0,0,1-3.2,6.51,44,44,0,0,1-20.88,14.94c-11.67,4-24.45,3-36.83,2.66-35.48-.94-107,18.19-141.84,11.38-6.39-1.25-8.16-15.2-13.73-18.67-3.15-2,25.1-7.07,24.74-10.62-.33-3.28,1.8-6.3,4.61-8s6.21-2.24,9.56-2.64c18.77-2.25,44.67-6.66,63.79-7.38s32.38,1.78,46.68-10.53a35.31,35.31,0,0,0,9-11.24,26.7,26.7,0,0,0,2.46-9.09" style="fill:#ffcd05;opacity:0.5;mix-blend-mode:multiply"/><path d="M838.1,120.4a32.71,32.71,0,0,0-.69-10.13l-5.65-.77s-.26,4.37-10.4,5.34S810.77,108,810.77,108s-12.18,8.73-17.78-1.51c-10.21,5.36-13.66-1.83-13.66-1.83s-10.25,1.83-11.65-2.36c-4.88-16.73,22.68-15.14,22.68-15.14s6.08-5,13.89-3.31l1.6-6a68.39,68.39,0,0,1,12.33,6.41c15.73-.88,24,3.71,28.16,8,12.5,5.63,23.56,14,33.13,23.64a34.87,34.87,0,0,1,6,7.37,32,32,0,0,1,3,8.68" style="fill:#f4a90f;opacity:0.5;mix-blend-mode:multiply"/></g><path d="M755.7,232.6c.76,2.41,1.66,5.47.63,7.94-.85,2-1.28.68-1.69-.64a7.77,7.77,0,0,1-.18-3.74,10.73,10.73,0,0,1,1-2.81c.15-.29,1.25-1.77,0-1.79,0,0,.19,1.65.21,1.79a19.11,19.11,0,0,1,.06,3.78c-.05.47-.47,3.33-1.17,3.39l2.43.88c-1.7-2-.81-5.64.22-7.74l-3.13-.95-.16,6c0,1,3.11,1.69,3.13,1l.16-6c0-.93-2.7-1.85-3.13-.95-1.09,2.22-2,6.39,0,8.49a2.65,2.65,0,0,0,3.61.31c1.83-1.8,1.56-7.15.88-9.36a3.52,3.52,0,0,0-3.94-2.31c-2.28.53-3.3,4.46-3.43,6.43-.14,2.17.53,5,2.41,6.31,1.51,1.06,4.12,1.41,5.4-.18,1.88-2.35.6-6.74-.18-9.21-.28-.92-3.38-1.43-3.12-.59Z" style="fill:#2e0000"/><path d="M804.11,235.42c-1,2.53-2.43,6.65-.74,9.19,1.07,1.61,3.66,1.62,5.23.83,2.13-1.06,3-3.94,3-6.17,0-2-.84-5.94-3-6.66a3.34,3.34,0,0,0-4.15,1.78c-.83,2.4-1.16,6.46,0,8.82a2.56,2.56,0,0,0,4,.79c2.18-1.81,1.44-6.32.54-8.46-.36-.87-3.21-.55-3.24.44l-.19,6c0,.8,3.21.58,3.24-.45l.19-6-3.24.44c.87,2.09,1.6,5.86-.19,7.75l2.19-.53c.54.07-.39-1.4-.5-1.91a10,10,0,0,1-.16-2.51c0-.81.12-1.62.23-2.42.08-.55.77-2.59.18-2.54l-1.45-.13c1.37.7,2,3.16,2.23,4.58a8,8,0,0,1-.61,4.76c-.45.93-.77,2.38-1.32.47a8.81,8.81,0,0,1-.35-2.28,15.9,15.9,0,0,1,1.33-5.88c.34-.89-2.84-.81-3.17.08Z" style="fill:#2e0000"/><path d="M773.58,255.11a8,8,0,0,1,12.7-2.72" style="fill:none;stroke:#2e0000;stroke-linecap:round;stroke-linejoin:round;stroke-width:1.63801299664187px;mix-blend-mode:multiply"/><path d="M764.67,284.83a4.24,4.24,0,0,0,.68.6,26,26,0,0,0,9.26,4.51,32.16,32.16,0,0,0,8.41,1.14,29,29,0,0,0,4.48-.39h.13c6.28-1.21,12-2.91,17-6.88,3.74-3,5.23-6.63,6.1-10.89a9.74,9.74,0,0,0-.48-6.37c-1-1.84-1.66-3-4.24-3.56s-4-.76-7.54.95c-5.43,2.63-10.73,7.38-18.12,6.48-3.84-.47-8.17-2.35-12.24-1.58s-6.09,4.24-6.54,7.63S762.72,282.31,764.67,284.83Z" style="fill:#200"/><path d="M764.78,284.84c-.23.19.39.41.62.6a25.33,25.33,0,0,0,9.22,4.5,31.9,31.9,0,0,0,8.42,1.14c.5,0,.83-.1,1.43-.12s2.49-.24,2.9-.26h.22a39.09,39.09,0,0,0,17.11-6.83,4.64,4.64,0,0,1-.69-.17,44.33,44.33,0,0,0-8.15-2.73,53.08,53.08,0,0,0-25,.78A17.62,17.62,0,0,0,764.78,284.84Z" style="fill:#cb1d00"/><path d="M805.86,262.58c2.59.55,3.47,2.09,4.39,4a8.78,8.78,0,0,1,.45,6.41c-4.49,15.11-20.69,19.89-35.87,17a19.89,19.89,0,0,1-9.42-4.54,10.16,10.16,0,0,1-3.79-8.87,8.38,8.38,0,0,1,6.48-7.65c3.8-.78,8.93,1.41,12.09,1.56,8.12.4,12.56-3.78,18.27-6.47C802.14,262.21,803.26,262,805.86,262.58Z" style="fill:none;stroke:#7e1200;stroke-miterlimit:10;stroke-width:1.6052811962119px"/><path d="M733.9,221c1-1.71,1.17-4.09,2.91-5.3,6.09-4.22,15.61-5.63,20.56-5.56a5.07,5.07,0,0,1,3.15,1.18l3.69,3Z" style="fill:#2e0000"/><path d="M830.58,225.57c-.88-1.78-.83-4.17-2.47-5.52-5.72-4.71-15.08-6.91-20-7.25a5.16,5.16,0,0,0-3.24.92l-3.92,2.7Z" style="fill:#2e0000"/><path d="M710.73,240.82a15.43,15.43,0,0,1-.21,3.81A12.06,12.06,0,0,0,710,248a3.13,3.13,0,0,0,2.31,2.27,5.21,5.21,0,0,1,2.8,1.68,74.61,74.61,0,0,0-1.31-12.4,10.48,10.48,0,0,0-1-3.14c-1.15-2.05-5-3.38-7.35-.91C710.27,235.64,710.59,239.39,710.73,240.82Z" style="fill:#f1c58d;opacity:0.5;mix-blend-mode:multiply"/><path d="M866.56,195.61a65.64,65.64,0,0,0-1.82-8.66,6.48,6.48,0,0,0-1.27-2.67,2.33,2.33,0,0,0-2.7-.64,4,4,0,0,0-2-4.21,17.53,17.53,0,0,0-2.35-.79c-4.77-1.69-7.42-8.33-12.47-8-2.21.15-4.05,1.69-6.13,2.45a17.91,17.91,0,0,1-6.69.67,5.45,5.45,0,0,1-1.89-.28,5.61,5.61,0,0,1-1.82-1.44,51.44,51.44,0,0,0-8.67-7.19c-1.17-.78-3.23-1.2-3.56.16-.11.42,0,.88-.16,1.26-.43.87-1.73.38-2.58-.08a8.68,8.68,0,0,0-8.62.36,2.51,2.51,0,0,1-1.48.61,2.3,2.3,0,0,1-1.25-.71,23.58,23.58,0,0,0-2.38-1.84c.11.19-.57,0-.61,0-.67-.2-1.32-.48-2-.74-1.71-.69-3.43-1.36-5.12-2.09.66,0-1.58-1.27-3.47-1.1-2.18.18-3.92,1.78-5.76,3l-.24.15c-1.53.32-3.24.63-5,.94a3.09,3.09,0,0,1-.81-.45c-.66-.52-1.26-1.35-2.09-1.24-.48.07-5.65-.12-7.8.41s-5.48,2-4.78,3.92l-.9.17.11-.39a14,14,0,0,0-7.52-3.28c-8-.49-13.85,8.93-21.88,9.08-2.84.05-5.8-1.08-8.43,0-3,1.2-4.28,4.66-6.46,7-2.91,3.14-7.66,4.56-9.6,8.38-1.62,3.2-.73,7.05.2,10.53a2.86,2.86,0,0,0,4.05,2.41c14.86-2.13,30-4.36,43.56-10.76a1.66,1.66,0,0,1-.21-.06l0-.21c.11.15.18.26.16.27,2.49.92,5.15-.86,7.62-2a27.22,27.22,0,0,1,9.39-1.83q6.33-.39,12.66-.19c3.51.12,7.17.43,10.16,2.27,1.67,1,3,2.48,4.75,3.45,2.66,1.5,5.84,1.66,8.83,2.29,8.12,1.68,16,7,24.05,5,2.94-.72,6-2.4,8.81-1.37,1.4.51,2.5,1.61,3.83,2.26,1.72.84,3.7.89,5.59,1.22s3.88,1.13,4.76,2.83a14.14,14.14,0,0,1,.78,2.67c1,3.34,4,5.64,6.77,7.7,1.3,1,3.17,1.88,4.36.8a3.55,3.55,0,0,0,.79-2.69A116.46,116.46,0,0,0,866.56,195.61Z" style="fill:#2e0000"/></g><g style="clip-path:url(#clip-path-5)"><path d="M178.71,852.2s-8.46,8.61-15.81,4.64-18.18-5.45-18.41-1,13.06,8,13.06,8-4.55,5.42-7.8,5.45-15.7-.31-14,5.06,17.06,1.5,17.06,1.5-19.27,2.11-18.11,6.81,19.62-.18,19.62-.18-17.37,2.17-16.1,7.46,20.89-1.36,20.89-1.36-14.56,5.59-12.91,8.69S172.92,895.55,182,879c3.22-5.5,11.46-10.66,11.46-10.66Z" style="fill:#e8b782"/><path d="M167.68,882.74a39.62,39.62,0,0,1-10,6.39" style="fill:none;stroke:#f1c58d;stroke-linecap:round;stroke-linejoin:round;stroke-width:1.47458447320566px;mix-blend-mode:multiply"/><path d="M161,878.65s-8.38,5.06-15.11,5.54" style="fill:none;stroke:#f1c58d;stroke-linecap:round;stroke-linejoin:round;stroke-width:1.47458447320566px;mix-blend-mode:multiply"/><path d="M161.55,872.6a125.23,125.23,0,0,1-15.9,4.45" style="fill:none;stroke:#f1c58d;stroke-linecap:round;stroke-linejoin:round;stroke-width:1.47458447320566px;mix-blend-mode:multiply"/><line x1="161.02" y1="863.36" x2="157.55" y2="863.84" style="fill:none;stroke:#f1c58d;stroke-linecap:round;stroke-linejoin:round;stroke-width:1.47458447320566px;mix-blend-mode:multiply"/><path d="M421.84,756.09s11.12-4.7,10.13-13,1.64-18.91,5.89-17.47,2.59,15.07,2.59,15.07,6.72-2.23,7.94-5.24,5.5-14.71,9.87-11.18-4.88,16.42-4.88,16.42,9.05-17.14,13-14.33S459,744.54,459,744.54s8.42-15.34,12.87-12.22-9,18.93-9,18.93,10.56-11.48,12.83-8.81S464.28,766.66,445.6,769c-6.3,1-14.13,6.73-14.13,6.73Z" style="fill:#e8b782"/><path d="M454.3,757.08a40,40,0,0,0,9.61-6.91" style="fill:none;stroke:#f1c58d;stroke-linecap:round;stroke-linejoin:round;stroke-width:1.47458447320566px;mix-blend-mode:multiply"/><path d="M453,749.37s7.79-5.92,10.72-12" style="fill:none;stroke:#f1c58d;stroke-linecap:round;stroke-linejoin:round;stroke-width:1.47458447320566px;mix-blend-mode:multiply"/><path d="M447.13,747.64a126.23,126.23,0,0,0,10-13.14" style="fill:none;stroke:#f1c58d;stroke-linecap:round;stroke-linejoin:round;stroke-width:1.47458447320566px;mix-blend-mode:multiply"/><line x1="438.73" y1="743.75" x2="440.45" y2="740.7" style="fill:none;stroke:#f1c58d;stroke-linecap:round;stroke-linejoin:round;stroke-width:1.47458447320566px;mix-blend-mode:multiply"/><path d="M369,823.78c5.86,32.9,14,69.68,15,79.9l-123.87-.44-2-66-68.29,36.85-8.15-11.59-7.06-10.07s35.35-42.64,83.43-64.18c.7-.34,1.39-.65,2.11-1,17.79-7.69,30.29-10.87,59.09-15.41,9.68-1.51,17.76-3,24.47-4,2.35-.31,4.54-.58,6.56-.72,29.13-2.14,45.79-9,76.87-17.5l8,19.64,2,4.9s-30.35,23.1-70.23,36.78C367.5,815.12,368.2,819.4,369,823.78Z" style="fill:#46b1e5"/><path d="M343.66,767.89a66.66,66.66,0,0,1-21.16,23.68c-4.44,3-9.54,5.62-14.85,5.89A111.62,111.62,0,0,1,258,788.25c.7-.34,1.39-.65,2.11-1,17.79-7.69,30.29-10.87,59.09-15.41C328.87,770.37,337,768.83,343.66,767.89Z" style="fill:#46b1e5;mix-blend-mode:multiply"/><path d="M312.48,781.6,302.68,795c-.16.23.13.39.29.48l14.41,8.26-.28-.48-9.81,13.42c-.17.23.13.39.29.48L322,825.46l-.29-.49-9.82,13.41c-.17.23.13.39.29.49l14.4,8.3-.28-.49-9.85,13.4c-.16.23.13.39.29.48l14.39,8.33-.29-.48L321,881.78c-.17.23.13.39.29.48l14.34,8.4-.28-.48L325.22,903.3c-.39.51,1.86,1,2.3.38l10.08-13.13c.18-.22-.13-.39-.28-.48L323,881.67l.28.49,9.88-13.37c.17-.23-.12-.39-.28-.49L318.46,860l.29.48,9.84-13.4c.16-.23-.13-.39-.29-.48l-14.4-8.3.28.48L324,825.35c.17-.23-.12-.39-.28-.48l-14.41-8.28.28.49,9.81-13.42c.17-.23-.12-.39-.28-.48l-14.42-8.27.28.49L314.79,782c.38-.52-1.88-1-2.31-.38Z" style="fill:#f6fbfb"/><path d="M369,823.78c5.87,32.91,14,69.69,15,79.9l-123.86-.43-2.05-66-68.28,36.85-4.3-6.11s69.46-39.53,71.19-47a38,38,0,0,1,6.63-13.56s-1,87.69,11.83,88.26,99.77.92,99.77-1.36-18.19-83.73-18.19-83.73h0a4.52,4.52,0,0,1,1.23-7.65c41.71-11,57-22.35,77.11-33.59l2,4.9s-30.36,23.1-70.24,36.78C367.49,815.13,368.19,819.41,369,823.78Z" style="fill:#46b1e5;mix-blend-mode:multiply"/><path d="M233.75,785.85a10.72,10.72,0,0,1-3.77,6.81c-.67.48-1.78.81-2.24.09-.14-.19-4.49,1.4-4.54,1.16-.46-2.84,1.56-8.1.89-6.95v0a58.24,58.24,0,0,0-2.81,5.44l0,0c-.62,1.3-3.1,1.08-3.51-.46a45.46,45.46,0,0,1-1.44-9.13v0a49,49,0,0,1,2.45-18.41c1.18-3.56,3.08-9.71,6.35-11.94a3.7,3.7,0,0,1,2.16-.77c2.94,0,4.5,4.61,4.76,7.33q.9,9.45,1.73,18.89A30.08,30.08,0,0,1,233.75,785.85Z" style="fill:#1982c4"/><path d="M227.26,751.7a20.4,20.4,0,0,1-1.51,4.76c-2,4.37-1,20.57-1.66,30.5v0l-2.81,5.44,0,0c-1.41-2.36,2.05-25.6.49-28.39l-5.44,18.77a49,49,0,0,1,2.45-18.41c1.18-3.56,3.08-9.71,6.35-11.94A3.7,3.7,0,0,1,227.26,751.7Z" style="fill:#919598;opacity:0.5;mix-blend-mode:multiply"/><path d="M355.79,687c-5.92-1.8-8.18,8.44-8.24,9-.49-4.11-1.53-12.55-2.12-16.67s-1.19-8.16-1.9-12.23c-.18-1.29-.39-2.53-.61-3.82-.49-2.81-1.14-5.85-3.25-7.72-2.68-2.37-6.63-1.84-10-1.19-1.95.39-3.87.74-5.82,1.13-38.58,7.51-77.26,16.29-112.45,33.88-1.14.56-2.25,1.12-3.38,1.71a19.22,19.22,0,0,0-5.1,3.46l1.67-.7c2.42,11.75,8,22.87,12,34.19-2.22-3.68-9.92-4.24-12.77-1.31-1.8,1.87-2.48,4.7-2.64,7.42-.45,7.69,2.84,15.81,8.56,20.45a18.2,18.2,0,0,0,15.63,3.69,11.66,11.66,0,0,0,1.16-.31c2.6,5.23,35.5,31.31,79.38,29.08,5.32-.27,10.41-2.91,14.86-5.89,28.37-19,31.74-56.51,31.74-56.51s2.41-.11,5-2.88C360.48,718.73,363.29,689.29,355.79,687Z" style="fill:#e8b782"/><path d="M345.53,679.18c.71,4.06.56,4.44,1.16,8.52,0,0-72.43-33.76-122.58,50-1.86,3.12-11.53-14-12.87-19.4-1.1-4.39-1.71-13,1-15.76.36-.36.73-.73,1.14-1.11,22.17-21.62,58.55-28.88,89.14-33.53,7.73-1.18,15.72-2,23.31-.36.76.15,1.49.29,2.24.51a35.32,35.32,0,0,1,15.82,9.26A24,24,0,0,1,345.53,679.18Z" style="fill:#f1c58d;opacity:0.5;mix-blend-mode:multiply"/><path d="M213.85,740.86a14.6,14.6,0,0,1,1.69,3.73c.35,1.12.41,2.43,1.14,3.39.89,1.15,2.48,1.46,3.93,1.56a9.12,9.12,0,0,1,4.23.85A82.53,82.53,0,0,0,217,738.81a13.46,13.46,0,0,0-2.78-2.76c-2.43-1.65-7.77-1.89-9.32,1.12C210.66,736,213,739.52,213.85,740.86Z" style="fill:#f1c58d;opacity:0.5;mix-blend-mode:multiply"/><path d="M315.32,701.1c-.35,2.58-.75,6.36,1.2,8.5a4.69,4.69,0,0,0,5.14.82c2-1.09,2-4.45,1.53-6.32-.49-2.05-2-4.85-4.08-5.63-1.59-.58-3.47-.26-3.7,1.61-.31,2.42.38,6.88,2.32,8.6.85.76,2.93,1.34,3.71.21,1.43-2.08-.26-6-1.49-7.67-.35-.48-3.22-1-3.05-.12l1.1,5.56c.19,1,3.22,1,3.09.28l-1.1-5.55-3.05-.12a8.65,8.65,0,0,1,1.67,3.67,25.36,25.36,0,0,0,.17,3.29l1.87.27c-1.78-1.13-1.92-4.61-2.07-6.43a9.63,9.63,0,0,0-.06-1.93c-.07-.16-2-2.06-.19.27a9.51,9.51,0,0,1,1.55,2.76,7.66,7.66,0,0,1,.42,3.52c-.09.71-.43,2.75-1.22,2.21s-.89-2.85-.93-3.7a21.28,21.28,0,0,1,.26-3.82c.12-.84-3-1.19-3.09-.28Z" style="fill:#2e0000"/><path d="M270.54,711.18c1.19,2,2.58,4.5,2.31,6.94,0,.28-.18,1.43-.47,1.59s-.85-.56-1.21-1.16a7.43,7.43,0,0,1-1-2.93,9.33,9.33,0,0,1,.18-3.16,9.79,9.79,0,0,1,.37-1.31l.41-.93c-1-.29-1.3-.14-.93.46-.13.87.92,2.72,1.11,3.6.12.56.73,4.24-.12,4.5l2.16.37c-1.84-1.39-1.71-5.08-1.25-7l-3-.35,1.12,5.54c.17.82,3.2,1.15,3,.18L272.09,712c-.15-.73-2.83-1.18-3-.35-.57,2.42-.39,5.85,1.58,7.7,1,.89,2.84,1.12,3.61,0,1.34-2-.12-7.45-1.38-9.23a3.56,3.56,0,0,0-4.09-1.06c-1.78,1-1.86,4.64-1.63,6.36.3,2.18,1.56,4.69,3.69,5.6,1.62.7,4.11.57,4.87-1.29,1.07-2.62-.9-6.16-2.16-8.31-.48-.8-3.39-.83-3-.18Z" style="fill:#2e0000"/><path d="M301.71,732.19a7.59,7.59,0,0,0-6-10.73" style="fill:none;stroke:#f1c58d;stroke-linecap:round;stroke-linejoin:round;stroke-width:1.55138809164069px;mix-blend-mode:multiply"/><path d="M310,759.54a3.53,3.53,0,0,1-.6.62,24.54,24.54,0,0,1-8.4,5,30.54,30.54,0,0,1-7.86,1.71,28.7,28.7,0,0,1-4.25,0h-.12c-6-.67-11.57-1.85-16.59-5.21-3.76-2.52-5.43-5.87-6.58-9.83a9.29,9.29,0,0,1,0-6c.8-1.81,1.34-3,3.74-3.68s3.72-1,7.19.33c5.32,2.08,10.69,6.16,17.59,4.75,3.6-.73,7.54-2.83,11.44-2.41s6.07,3.54,6.74,6.71S311.62,757,310,759.54Z" style="fill:#200"/><path d="M309.86,759.56c.24.16-.33.42-.53.61a23.73,23.73,0,0,1-8.37,5,30.1,30.1,0,0,1-7.86,1.71c-.48,0-.79,0-1.36,0s-2.37,0-2.76,0h-.21a36.91,36.91,0,0,1-16.66-5.16,3.11,3.11,0,0,0,.63-.21,42.07,42.07,0,0,1,7.49-3.19,50.4,50.4,0,0,1,23.63-1.15A16.89,16.89,0,0,1,309.86,759.56Z" style="fill:#cb1d00"/><path d="M269.41,741.64c-2.41.71-3.12,2.24-3.85,4.08a8.34,8.34,0,0,0,.05,6.08c5.38,13.94,21,17.23,35.16,13.3a18.72,18.72,0,0,0,8.54-5,9.59,9.59,0,0,0,2.91-8.66,7.94,7.94,0,0,0-6.69-6.74c-3.64-.44-8.33,2-11.3,2.39-7.63,1-12.14-2.63-17.73-4.73C272.89,741,271.82,740.92,269.41,741.64Z" style="fill:none;stroke:#7e1200;stroke-miterlimit:10;stroke-width:1.52038728425448px"/><path d="M335.32,685.64c-1.28-1.39-1.87-3.57-3.72-4.36-6.46-2.75-15.55-2.25-20.13-1.24a4.89,4.89,0,0,0-2.69,1.7l-2.85,3.51Z" style="fill:#2e0000"/><path d="M251.53,702.78c.64-1.78.35-4,1.75-5.45,4.89-5,13.48-8.07,18.1-8.9a4.84,4.84,0,0,1,3.14.53l4,2.14Z" style="fill:#2e0000"/><path d="M352.27,706a14.74,14.74,0,0,0,.8,3.52,11.33,11.33,0,0,1,1,3.09,3,3,0,0,1-1.79,2.48,4.86,4.86,0,0,0-2.35,2,70.69,70.69,0,0,1-.75-11.79,9.71,9.71,0,0,1,.41-3.09c.75-2.09,4.15-3.95,6.72-2C351.88,701.12,352.17,704.68,352.27,706Z" style="fill:#f1c58d;opacity:0.5;mix-blend-mode:multiply"/><path d="M355,682.13c0,1.61.14,3.2.29,4.76-5.58.17-8,17.84-8.17,18.54-26.68-46.88-70.6-26.18-70.6-26.18s-80.36,44.63-92.14,1.51a42,42,0,0,1-1.41-9.66,55.85,55.85,0,0,1,.91-12.62c9.52-51.1,87.66-80,118.55-66.61a45.48,45.48,0,0,1,7,3.85c28.22,18.51,45.84,68.21,45.84,68.21A176.68,176.68,0,0,0,355,682.13Z" style="fill:#1982c4"/><path d="M355,682.13a22.3,22.3,0,0,1-4,1.71c-7.74,2.28-18.18-10.1-26.25-10.21-15.57-.22-31.13-.61-48.24,1.19-21.2,2.26-41.63,10-62.93,11.4-8.78.53-17.86-.1-25.87-3.73a35.18,35.18,0,0,1-3.34-1.73,42,42,0,0,1-1.41-9.66,55.85,55.85,0,0,1,.91-12.62c5.91-.82,68.89-65.36,114.21-67,4.56-.16,6.81,4,11.36,4.22,28.22,18.51,45.84,68.21,45.84,68.21A176.68,176.68,0,0,0,355,682.13Z" style="fill:#919598;opacity:0.4;mix-blend-mode:multiply"/><path d="M344.68,673.31C294,659,245.72,698.79,226,718.17c-.34.31-.65.64-1,1,0,0,0,0,0,.05-5.09,5.82-.86,18.57-.86,18.57-.91-.92-9.45-11.36-10.53-11.91-2.36-1.25-5.17-1.44-8.75.09,0,0-16.18-22.54-23.1-46.7s89.73-83.38,125.91-86.6a16,16,0,0,1,6.49.84c19.37,6.34,40.57,45.33,42.42,66.6C357.42,669.92,354.15,676,344.68,673.31Z" style="fill:#1982c4"/><path d="M344.68,673.31c-49.46-14-96.58,23.56-117.18,43.39h0c-.51.5-1,1-1.49,1.47a3,3,0,0,0-1,1s0,0,0,.05c-4.9,5.6-1.17,17.59-.89,18.53-1-1-7.81-9.35-10-11.42a2.73,2.73,0,0,0-.55-.45c-2.36-1.25-5.17-1.44-8.75.09,0,0-16.18-22.54-23.1-46.7s89.73-83.38,125.91-86.6a16,16,0,0,1,6.49.84c-12.89,4.71-141.89,60.33-117,94.87,39.31-35.31,81-48.55,86.13-50.07-5.36,1.9-49.59,18.44-79.66,62.3a1.94,1.94,0,0,0,.27,2.46c.72.62,1.85.16,2.66-.32,41.59-24,101.13-50.33,142.61-37.64,6.35,1.95,6.11-1.15,7.43-5C357.42,669.92,354.15,676,344.68,673.31Z" style="fill:#919598;opacity:0.2;mix-blend-mode:multiply"/><path d="M337.39,822.34c5.7,0,10.23-4.47,15.9-4.33,1.55,0-.15-1.14-.9-1.16-5.93-.15-10.56,4.29-16.41,4.32-1.21,0,.8,1.18,1.41,1.17Z" style="fill:#f6fbfb"/></g></g></g></svg>