<svg xmlns="http://www.w3.org/2000/svg" xmlns:xlink="http://www.w3.org/1999/xlink" viewBox="0 0 1000 1000"><defs><clipPath id="clip-path"><path d="M399.93,359.36s95.05-54.47,204-5.79c0,0,12-49.45-9.27-89.25,0,0-128.66-46.52-200.52,21.94C388.34,302.57,399.93,359.36,399.93,359.36Z" style="fill:none"/></clipPath><clipPath id="clip-path-2"><rect x="93.55" y="224.39" width="302.16" height="497.94" style="fill:none"/></clipPath><clipPath id="clip-path-3"><path d="M342.24,405.57s-87.81-45.92-183.51-1.95c0,0-.09-.5-.24-1.43-6.67-43.1,23.47-83.68,67-89.73a203.56,203.56,0,0,1,46.26-1.41c46.39,4.23,79.08,47.08,70.86,92.57Z" style="fill:none"/></clipPath></defs><title>Design</title><g style="isolation:isolate"><g id="Layer_2" data-name="Layer 2"><rect x="55.99" y="552.05" width="876.37" height="169.7" style="fill:#dda654"/><polygon points="527.57 508 527.57 722.45 132.61 722.45 132.61 509 359.33 437.8 360.03 437.57 527.57 508" style="fill:#232323"/><polygon points="527.57 531.77 527.57 575.36 366.01 520.78 132.61 575.55 132.61 537.26 362.02 473.09 527.57 531.77" style="fill:#ffcd05"/><polygon points="295.69 558.07 245.16 572.2 245.16 614.91 295.69 603.05 295.69 558.07" style="fill:#ffcd05"/><polygon points="476.64 580.47 418.13 559.73 418.13 605.15 476.64 624.92 476.64 580.47" style="fill:#ffcd05"/><polygon points="527.57 599.21 527.57 643.13 500 633.82 500 589.43 527.57 599.21" style="fill:#ffcd05"/><polygon points="229.53 575.55 180.99 589.13 180.99 629.26 229.53 617.87 229.53 575.55" style="fill:#ffcd05"/><polygon points="162.87 594.33 132.61 602.79 132.61 641.08 162.87 633.98 162.87 594.33" style="fill:#ffcd05"/><polygon points="401.42 552.05 363.52 538.62 325.12 549.36 325.12 596.25 367.51 586.3 401.42 597.76 401.42 552.05" style="fill:#ffcd05"/><polygon points="527.57 508 527.57 722.45 359.33 722.45 359.33 437.8 360.03 437.57 527.57 508" style="fill:#232323;opacity:0.5;mix-blend-mode:multiply"/><path d="M92.39,584.57h2.68a14.71,14.71,0,0,1,14.71,14.71V636.9a0,0,0,0,1,0,0H77.68a0,0,0,0,1,0,0V599.28A14.71,14.71,0,0,1,92.39,584.57Z" style="fill:#232323;opacity:0.5;mix-blend-mode:multiply"/><path d="M92.39,655.89h2.68a14.71,14.71,0,0,1,14.71,14.71v37.62a0,0,0,0,1,0,0H77.68a0,0,0,0,1,0,0V670.6A14.71,14.71,0,0,1,92.39,655.89Z" style="fill:#232323;opacity:0.5;mix-blend-mode:multiply"/><path d="M583.12,584.57h2.68a14.71,14.71,0,0,1,14.71,14.71V636.9a0,0,0,0,1,0,0H568.41a0,0,0,0,1,0,0V599.28a14.71,14.71,0,0,1,14.71-14.71Z" style="fill:#232323;opacity:0.5;mix-blend-mode:multiply"/><path d="M583.12,655.89h2.68A14.71,14.71,0,0,1,600.5,670.6v37.62a0,0,0,0,1,0,0H568.41a0,0,0,0,1,0,0V670.6A14.71,14.71,0,0,1,583.12,655.89Z" style="fill:#232323;opacity:0.5;mix-blend-mode:multiply"/><path d="M642.35,584.57H645a14.71,14.71,0,0,1,14.71,14.71V636.9a0,0,0,0,1,0,0H627.64a0,0,0,0,1,0,0V599.28a14.71,14.71,0,0,1,14.71-14.71Z" style="fill:#232323;opacity:0.5;mix-blend-mode:multiply"/><path d="M642.35,655.89H645a14.71,14.71,0,0,1,14.71,14.71v37.62a0,0,0,0,1,0,0H627.64a0,0,0,0,1,0,0V670.6a14.71,14.71,0,0,1,14.71-14.71Z" style="fill:#232323;opacity:0.5;mix-blend-mode:multiply"/><path d="M701.57,584.57h2.68A14.71,14.71,0,0,1,719,599.28V636.9a0,0,0,0,1,0,0H686.87a0,0,0,0,1,0,0V599.28a14.71,14.71,0,0,1,14.71-14.71Z" style="fill:#232323;opacity:0.5;mix-blend-mode:multiply"/><path d="M701.57,655.89h2.68A14.71,14.71,0,0,1,719,670.6v37.62a0,0,0,0,1,0,0H686.87a0,0,0,0,1,0,0V670.6a14.71,14.71,0,0,1,14.71-14.71Z" style="fill:#232323;opacity:0.5;mix-blend-mode:multiply"/><path d="M760.8,584.57h2.68a14.71,14.71,0,0,1,14.71,14.71V636.9a0,0,0,0,1,0,0H746.1a0,0,0,0,1,0,0V599.28A14.71,14.71,0,0,1,760.8,584.57Z" style="fill:#232323;opacity:0.5;mix-blend-mode:multiply"/><path d="M760.8,655.89h2.68a14.71,14.71,0,0,1,14.71,14.71v37.62a0,0,0,0,1,0,0H746.1a0,0,0,0,1,0,0V670.6A14.71,14.71,0,0,1,760.8,655.89Z" style="fill:#232323;opacity:0.5;mix-blend-mode:multiply"/><path d="M820,584.57h2.68a14.71,14.71,0,0,1,14.71,14.71V636.9a0,0,0,0,1,0,0H805.33a0,0,0,0,1,0,0V599.28A14.71,14.71,0,0,1,820,584.57Z" style="fill:#232323;opacity:0.5;mix-blend-mode:multiply"/><path d="M820,655.89h2.68a14.71,14.71,0,0,1,14.71,14.71v37.62a0,0,0,0,1,0,0H805.33a0,0,0,0,1,0,0V670.6A14.71,14.71,0,0,1,820,655.89Z" style="fill:#232323;opacity:0.5;mix-blend-mode:multiply"/><path d="M879.26,584.57h2.68a14.71,14.71,0,0,1,14.71,14.71V636.9a0,0,0,0,1,0,0H864.55a0,0,0,0,1,0,0V599.28A14.71,14.71,0,0,1,879.26,584.57Z" style="fill:#232323;opacity:0.5;mix-blend-mode:multiply"/><path d="M879.26,655.89h2.68a14.71,14.71,0,0,1,14.71,14.71v37.62a0,0,0,0,1,0,0H864.55a0,0,0,0,1,0,0V670.6A14.71,14.71,0,0,1,879.26,655.89Z" style="fill:#232323;opacity:0.5;mix-blend-mode:multiply"/><path d="M890.7,722.45l-191-.08h-16.6l-41.28.08c10.14-51.92,25.08-165.83,27.24-178.58,10.5-62.23,14-214.35,103.64-221.79,16.26-1.35,46.58-1.43,63.95,7.11,17.84,8.75,29,23.85,35.55,42.61,13.44,38.34,16,119.41-27.75,131.57,0,0,21.43,21.06,22.93,53.45C868,571.4,880.67,659.28,890.7,722.45Z" style="fill:#e71e25"/><polygon points="854.62 722.45 846.58 551.96 864.99 722.37 854.62 722.45" style="fill:#e71e25;mix-blend-mode:multiply"/><path d="M849.61,489.08s-.76,10.27-5.17,14.29c0,0-59.64,27.1-101-17.17L727.63,593.27l108.43,24.11c-44.32,50.71-86.82,73.61-127.07,62l-9.3,43h-16.6c1.54-9.79,7.34-27,17.32-51.13-7.48-31.42-9.14-52.7,16.46-80.3,16.67-49.49,9.67-100.3,15.18-127.16,17.59-85.89,57.85-100.74,41.75-86.3s-17.95,39.4-17.56,82.84S849.61,489.08,849.61,489.08Z" style="fill:#e71e25;mix-blend-mode:multiply"/><path d="M822.22,503.21c31-3.53,47-30.64,49.42-52.85,2-18.29-1.66-37.49-4.27-48.21-1.31-5.27-2.35-8.49-2.35-8.49-28.61-20.25-61.53-26.17-103-4.27a200.71,200.71,0,0,0-7.67,40C751.88,462.33,761.27,506.38,822.22,503.21Z" style="fill:#f1c58d"/><path d="M754.36,429.41c1.33-11.68,2.4-17.59,20.21-28.52,24.65-15.11,76.88-9.86,92.8,1.26-1.31-5.27-2.35-8.49-2.35-8.49-28.61-20.25-61.53-26.17-103-4.27A200.71,200.71,0,0,0,754.36,429.41Z" style="fill:#f1c58d;opacity:0.5;mix-blend-mode:multiply"/><path d="M760.68,393.69s66.63-19.54,104.31,0a68.73,68.73,0,0,0-3.49-17.29c-11.86-34-47.65-34.55-47.65-34.55-21,.74-34.5,14.79-42.67,28.09l-.11.14A95.49,95.49,0,0,0,760.68,393.69Z" style="fill:#1982c4"/><path d="M796.93,427.83c.84,1.67,2.3,4.78.81,6.53-2.1,2.44-3.21-2.46-2.78-4a7.13,7.13,0,0,1,1.46-2.62c.14-.17.28-.33.43-.48.41-.28.28-.47-.38-.59a4.59,4.59,0,0,0,.28,1,12.22,12.22,0,0,1,.3,3.57c0,.58-.49,2.77-1.17,2.83l2.15.57c-1.9-1.43-1.06-4.5,0-6.08l-3.11-.66-.06,4.86c0,1,3.2,1.33,3.21.5l0-4.86c0-.91-2.67-1.32-3.12-.66-1.35,2-2,5-.07,7a3,3,0,0,0,4.61-.75,8.76,8.76,0,0,0,.17-6.87c-.69-1.61-3.09-2.09-4.63-1.55-1.85.65-3.27,3.23-3.5,5.09a5.45,5.45,0,0,0,2.84,5.32c1.7.88,4.69,1,6.12-.48,1.93-2,.56-5.46-.48-7.54-.44-.86-3.53-.91-3.15-.14Z" style="fill:#2e0000"/><path d="M841,428.16c-1.07,2.14-2.42,5.4-.58,7.55,1.3,1.51,4.25,1.87,6,1.16,4.46-1.75,3.38-8.52-.4-10.4-1.36-.67-3.74-.81-4.62.64-1,1.71-1,5.32,0,7.08.79,1.42,3,2.66,4.57,1.51,2.14-1.62,1.31-5.09.07-6.91-.35-.52-3.18-1.17-3.17-.17l0,4.86c0,1,3.21,1.19,3.21.35L846,429l-3.17-.17a5.54,5.54,0,0,1,1.16,3.05c0,.91-.25,2.49-1,3.07l1.42-.17c.71.06.11-.49-.06-.82a4.75,4.75,0,0,1-.44-1.63,11.76,11.76,0,0,1,.15-2.65,12.14,12.14,0,0,0,.35-1.82l.25-.41H844c0,.32,1,1.21,1.22,1.54a7.24,7.24,0,0,1,.65,1.27c.53,1.48.41,4.31-1.26,5.16-1.92,1-2-1.91-1.85-2.91a11.26,11.26,0,0,1,1.26-3.64c.46-.91-2.66-1.46-3.06-.67Z" style="fill:#2e0000"/><path d="M778.9,412.52c8.6-9.25,19.89-8.8,26.44-8.19,1.53.15,3.49,2,2.34,4S787.77,408.24,778.9,412.52Z" style="fill:#2e0000"/><path d="M861.14,412.52c-8.61-9.25-19.89-8.8-26.44-8.19-1.53.15-3.49,2-2.34,4S852.27,408.24,861.14,412.52Z" style="fill:#2e0000"/><path d="M822.2,447.29c1.71,1.39,3.11,3.37,2.76,5.68-.45,3-3.3,4.13-5.94,2.75-.58-.3-2.51-.25-1.27.4,2.55,1.32,6.43,2.34,8.45-.43,2.19-3,.11-6.54-2.35-8.53-.43-.35-2.52-.57-1.65.13Z" style="fill:#d39b5e"/><path d="M795.71,475.2a3.42,3.42,0,0,0,.39.64,20.35,20.35,0,0,0,5.81,5.68,21.42,21.42,0,0,0,5.73,2.66,19.74,19.74,0,0,0,3.2.58l.09,0c4.59.25,8.88,0,13-2.35,3.08-1.74,4.68-4.53,5.94-7.94a9.88,9.88,0,0,0,.64-5.46c-.41-1.75-.71-2.88-2.44-3.86a5.76,5.76,0,0,0-5.43-.72c-4.21,1.11-8.66,4-13.71,1.78-2.63-1.17-5.38-3.62-8.35-3.8s-4.93,2.34-5.76,5.1S794.72,472.68,795.71,475.2Z" style="fill:#200"/><path d="M795.79,475.23c-.2.11.21.42.33.63a20,20,0,0,0,5.79,5.66,21.51,21.51,0,0,0,5.74,2.66c.35.12.6.09,1,.19s1.78.3,2.07.37l.16,0A23.6,23.6,0,0,0,824,482.48a2.39,2.39,0,0,1-.46-.29,33.64,33.64,0,0,0-5.3-3.95c-5.6-3-11.38-4.73-17.65-4.39A10.81,10.81,0,0,0,795.79,475.23Z" style="fill:#cb1d00"/><path d="M828,464.78c1.73,1,2.12,2.47,2.48,4.24a9,9,0,0,1-.66,5.49c-5.46,11.82-17.56,12.57-27.78,7a15.78,15.78,0,0,1-5.92-5.72,10.38,10.38,0,0,1-1.3-8.24c.71-2.86,2.92-5.26,5.71-5.14s6.06,3,8.25,3.77c5.64,2,9.4-.66,13.82-1.76C825.46,463.72,826.28,463.79,828,464.78Z" style="fill:none;stroke:#7e1200;stroke-miterlimit:10;stroke-width:1.266306880617px"/><path d="M760.68,393.69s66.63-19.54,104.31,0a68.73,68.73,0,0,0-3.49-17.29c-4.38,1.44-13.49,2.79-32.08,3.07-60.35.94-58.24-9.53-58.24-9.53l-.11.14A95.49,95.49,0,0,0,760.68,393.69Z" style="fill:#00dde0;mix-blend-mode:multiply"/><path d="M821.8,527.66c-.74-6.48-3.67-10.33-10.18-10.72h-.22c-1.68,0-30.52,7.71-36.81,9.13l23.25-1.64h-.12V528h-.31v1.75H772.68c.13,1.34-.25,3-2.37,5.13-.25.25-.53.53-.86.83-6.07,5.35-11,9.31-11,9.31l13.38,67L832,596Z" style="fill:#ffcd05"/><path d="M813.91,562.15c-11.28-7-15.07-7-16.27-9l-.45-1.58-1.18.3-1.84-4,.32,4.44-1.19.3.36,1.6c-.12,2.32-3.44,4.13-10,15.65s4.1,16.22,4.1,16.22l15.23-3.5,15-4.16S825.19,569.15,813.91,562.15Z" style="fill:#ffcd05;mix-blend-mode:multiply"/><path d="M817.77,519.05a13.29,13.29,0,0,0-6.37-2.11,1.71,1.71,0,0,0-.39,0c-1.06,0-26.5,6.57-33.23,8.11l20.06-.59h-.12V528h-.31v1.75H772.68c.13,1.34-.25,3-2.37,5.13-.25.25-.53.53-.86.83l-5.26,8.12,51.2-12.33C821.24,530.13,822.84,522.26,817.77,519.05Z" style="fill:#ffcd05;mix-blend-mode:multiply"/><path d="M811.4,532.51l-50.7,12.25-2.13.76L771.86,612l-12-6.07-13.08-71.87h0c.77-.25,16.71-5.54,41.64-11.86,9.67-2.44,15-3.74,18.54-2.41C815.67,523.15,811.4,532.51,811.4,532.51Z" style="fill:#fefad7"/><path d="M832.45,576.45S819,555,815.38,556.07s-1.62,8.92-3,6.3c-2.85-5.22-10.94-2-9.25,3.74,0,.13.07.26.11.39-1.74,1-3.15,5.68-1.78,10.27-3.11,16.07,14.42,39.5,34,44.1C858.83,626.34,832.45,576.45,832.45,576.45Z" style="fill:#f1c58d"/><path d="M832.45,576.45S819,555,815.38,556.07s-1.62,8.92-3,6.3c-2.85-5.22-10.94-2-9.25,3.74,0,.13.07.26.11.39-1.74,1-3.15,5.68-1.78,10.27-3.11,16.07,14.42,39.5,34,44.1C858.83,626.34,832.45,576.45,832.45,576.45Z" style="fill:#f1c58d;mix-blend-mode:multiply"/><line x1="812.8" y1="563.24" x2="823.89" y2="575.58" style="fill:none;stroke:#f1c58d;stroke-linecap:round;stroke-linejoin:round;stroke-width:1.90330040127882px;mix-blend-mode:multiply"/><line x1="802.34" y1="578.03" x2="804.29" y2="582.18" style="fill:none;stroke:#f1c58d;stroke-linecap:round;stroke-linejoin:round;stroke-width:1.90330040127882px;mix-blend-mode:multiply"/><line x1="803.97" y1="566.94" x2="808.89" y2="575.14" style="fill:none;stroke:#f1c58d;stroke-linecap:round;stroke-linejoin:round;stroke-width:1.90330040127882px;mix-blend-mode:multiply"/><path d="M871.21,595.5l-37.37-21.4S835,596.71,829,612.56c-6.07,16.06,13,43.79,31.7,39.86C892.89,645.66,879.08,598.46,871.21,595.5Z" style="fill:#1982c4"/><path d="M796.62,585.82s10.48-23.05,14.18-22.49-.37,13.45-.37,13.45c4.39-5.68,6.56-13,6.75-21.7,0,0,9.37,3.48,7.09,17,1.86.75,5,5.42,4.23,10.14,5.24,15.52-10.08,40.87-28.91,48.06C777.17,638.8,796.62,585.82,796.62,585.82Z" style="fill:#f1c58d"/><line x1="810.4" y1="575.75" x2="805.7" y2="583.11" style="fill:none;stroke:#f1c58d;stroke-linecap:round;stroke-linejoin:round;stroke-width:1.90330040127882px;mix-blend-mode:multiply"/><line x1="827.37" y1="582.65" x2="826" y2="587.02" style="fill:none;stroke:#f1c58d;stroke-linecap:round;stroke-linejoin:round;stroke-width:1.90330040127882px;mix-blend-mode:multiply"/><line x1="824.27" y1="571.87" x2="820.5" y2="580.67" style="fill:none;stroke:#f1c58d;stroke-linecap:round;stroke-linejoin:round;stroke-width:1.90330040127882px;mix-blend-mode:multiply"/><path d="M732,597.94l64.83-19.47s-.63,26.25,7.67,45.5c8.41,19.5-81,64.13-95.77,43.62C689.85,641.41,717.61,600.2,732,597.94Z" style="fill:#1982c4"/><path d="M811.4,532.51l-50.7,12.25-13.91-10.67c.77-.25,16.71-5.54,41.64-11.86,9.67-2.44,15-3.74,18.54-2.41C815.67,523.15,811.4,532.51,811.4,532.51Z" style="fill:#fefad7;mix-blend-mode:multiply"/><path d="M414,722.45V641.28a6.78,6.78,0,0,0-2.88.89c-8.4,4.36-23.74,23.32-23.74,23.32C343.64,644,384.75,547.3,388,521.34c1.48-12,24.77-25.28,49.31-36a598.38,598.38,0,0,1,58.47-21.51h23.94s24,8.34,48.45,19.94c24.74,11.72,50,26.7,51.59,39.75,2.85,23,12.78,116.42,11.6,177.11-.18,7.9,1.66,15.61,1.84,21.81Z" style="fill:#00dde0"/><path d="M568.13,483.78c-2.52,1.9-5.16,3.59-7.78,5.19a210.29,210.29,0,0,1-29,14.86c-8.87,3.77-18.25,7-27.86,7.06s-18.78-2.76-27.86-5.81c-13.58-4.6-27.73-10.24-38.41-19.73a598.38,598.38,0,0,1,58.47-21.51h23.94S543.65,472.18,568.13,483.78Z" style="fill:#00dde0;mix-blend-mode:multiply"/><path d="M414,722.45V641.28a6.78,6.78,0,0,0-2.88.89l9.14-14.86,10.11-85.15,10.5,122.62,93.43-64.59s8.87,27.15.56,38.24-48.06,47-73.52,52,112.68.71,112.68.71V528.78l13.35,193.67Z" style="fill:#00dde0;mix-blend-mode:multiply"/><path d="M536.83,569.51a21.68,21.68,0,0,1-6,11.83l-12.7-12.81.12-.09C519.86,567.28,537.12,550.87,536.83,569.51Z" style="fill:#e8ac6b"/><path d="M536.83,569.51a21.68,21.68,0,0,1-6,11.83,15.21,15.21,0,0,1-4,3l-8.72-15.81.12-.09C519.86,567.28,537.12,550.61,536.83,569.51Z" style="fill:#e8ac6b;opacity:0.2;mix-blend-mode:multiply"/><path d="M472.54,616l17.09-8.92s6.41-21.63,6.76-33.58,1.07-45.42,6.06-44.71,11.74,11.39,8.9,38.45c0,0,17.44-7.3,16.56,8,0,0,15.3-1.28,7.29,16.94,8.54,3.15,11.31,25.57-7,29.49.58,11.75-13,39.87-42.85,32.75S472.54,616,472.54,616Z" style="fill:#e8ac6b"/><path d="M519.09,583.27c1.77-2.92,6.21-5.47,8.53-8" style="fill:none;stroke:#f1c58d;stroke-linecap:round;stroke-linejoin:round;stroke-width:1.81998561095967px;mix-blend-mode:multiply"/><path d="M526.92,599c2.31-2,5.43-5.16,7.42-6.08" style="fill:none;stroke:#f1c58d;stroke-linecap:round;stroke-linejoin:round;stroke-width:1.81998561095967px;mix-blend-mode:multiply"/><path d="M526.92,621.75c2.31-2,7.93-7.65,9.91-8.57" style="fill:none;stroke:#f1c58d;stroke-linecap:round;stroke-linejoin:round;stroke-width:1.81998561095967px;mix-blend-mode:multiply"/><path d="M367.25,631c14.95-16.05,109.26-32,109.26-32l18.2,63S358.44,721.22,367.25,631Z" style="fill:#00dde0"/><path d="M620.25,390.13a68.84,68.84,0,0,1-2.75,13.71c-1.83,5.8-4.54,11.59-9.17,14.83-3.48,2.41-11.11,3.24-17.2,4.78h0c-.19,1.74-.43,3.43-.67,5.17,0,.19,0,.43-.1.63-.82,5.89-1.74,11.88-4.1,17.29-4.69,10.77-14.4,18.06-24.15,24a211.78,211.78,0,0,1-28.93,14.87c-8.89,3.77-18.26,7-27.87,7.06s-18.78-2.76-27.86-5.8C459,480.44,439.49,472.28,429,455.18c-4-6.57-6.43-14-8.46-21.54-.53.05-1.06.1-1.59.1a24.31,24.31,0,0,1-19.51-8.94c-6.28-7.58-8.45-19.07-5.84-29,.91-3.53,2.56-7,5.4-9,4.5-3.09,14.42-.34,16.35,5.07-2.27-15.89-6.69-31.92-6.78-48l-2.37.48a25.54,25.54,0,0,1,7.58-3.18c54.72-15.8,112.24-16.62,169-16.18,4.63,0,10,.38,12.84,4.2,2.27,3,2.32,7.15,2.23,11q-.66,22.68-2.61,45.35c.09,0,4.1-6.57,6.28-8.93,2.51-2.76,5.69-5.32,9.22-5.17s6.76,3.14,8.26,6.86S620.59,386.12,620.25,390.13Z" style="fill:#e8ac6b"/><path d="M464.74,346c11.57-4,23.54-7.22,35.77-7.67,11.12-.41,22.18,1.47,33.1,3.62,21.76,4.27,43.55,9.7,63.26,19.87,1.48.76,3.61,1.41,4.53,0a3.14,3.14,0,0,0,.38-1.82c0-6.26-2.43-12.32-5.85-17.55a47.32,47.32,0,0,0-18.29-16.32c-10.24-5.14-22-6.37-33.41-6.9-42-2-92.56-2-127.35,21.7-4.28,2.92-5.72,14.34-5.43,20.36.36,7.39,6.18,4.92,10.56,2.81A407,407,0,0,1,464.74,346Z" style="fill:#e8ac6b;opacity:0.5;mix-blend-mode:multiply"/><path d="M408.41,407.86a19.87,19.87,0,0,1,1.23,5.33c.17,1.56-.1,3.3.61,4.74.86,1.75,2.86,2.57,4.74,3.08s3.9.9,5.31,2.23A108.71,108.71,0,0,0,413,406a18.38,18.38,0,0,0-2.91-4.35c-2.75-2.8-9.69-4.51-12.51-1C405.51,400.66,407.6,405.88,408.41,407.86Z" style="fill:#e8ac6b;mix-blend-mode:multiply"/><path d="M592.47,389.84c3.22-3.75,7.36-13.75,12.71-15.76.25-.1-1.74-17.73-2.63-26.8-3.9,1.34-11.07-2.08-15.13-2.83C587.65,345.91,592.75,378.05,592.47,389.84Z" style="fill:#200"/><path d="M414.49,348.25c-2.06,14.49,3.21,31.64,3.49,46.35-8.29-12.68-17.75-8.5-17.75-8.5s.38-28.86,1.28-40.17a19.66,19.66,0,0,0,12.21,1.12l-.68,5.48Z" style="fill:#2e0000"/><path d="M399.93,359.36s95.05-54.47,204-5.79c0,0,12-49.45-9.27-89.25,0,0-128.66-46.52-200.52,21.94C388.34,302.57,399.93,359.36,399.93,359.36Z" style="fill:#00dde0"/><g style="clip-path:url(#clip-path)"><g style="mix-blend-mode:overlay"><path d="M386.08,348.15a322.4,322.4,0,0,1,94.1-22c32.18-2.69,65.08-1,96.43,7.08a191.06,191.06,0,0,1,47.7,19.08,4.67,4.67,0,0,0,3.35.67c.77-.24,1.19-.8.27-1.33-27.85-16.05-59.65-24.22-91.47-27.33a334.17,334.17,0,0,0-101.28,6,313.92,313.92,0,0,0-53,16.05c-1,.42.11,1.21.59,1.47a4.4,4.4,0,0,0,3.3.31Z" style="fill:#fef7e8"/></g><g style="mix-blend-mode:overlay"><path d="M375.68,306.21l21,17.36c.53.43,2.58,1.07,2.95.15l10.13-25.38-2.94-.15L428,315.37c.55.45,2.53,1.07,2.94.15l11.15-24.92-2.94-.15L459,309.13c.44.41,2.45,1,2.87.31l13.41-23.76-2.86-.31L490.28,306c.43.5,2.39,1,2.86.3L509,284.14l-3-.48,15.55,22.43c.46.65,2.39,1.17,3,.48l18.06-20.45-3-.48L553,309.46a2.51,2.51,0,0,0,3,.48l19.83-18.75-3-.48,11.31,24.84c.37.82,2.36,1,3,.48l21.18-17.2-3-.48,9.57,25.56c.33.87,2.38.92,3,.48l22.24-15.83c.55-.39-2.16-1.37-3-.81L614.9,323.58l3,.48-9.58-25.56c-.31-.85-2.4-1-3-.49l-21.18,17.21,3,.48-11.31-24.84c-.36-.78-2.41-1-3-.48L553,309.13l3,.48-13.33-23.82c-.39-.7-2.42-1.13-3-.48l-18.07,20.45,3,.48-15.55-22.43c-.42-.61-2.46-1.23-3-.48L490.2,305.51l2.86.31-17.84-20.65c-.39-.45-2.47-1-2.86-.3l-13.42,23.76,2.87.31-19.88-18.69c-.52-.49-2.55-1-2.94-.15L427.83,315l2.95.16L409.6,298c-.53-.44-2.57-1.08-2.94-.15l-10.14,25.37,3,.15-21-17.35c-.64-.53-3.63-.5-2.78.19Z" style="fill:#fef7e8"/></g><g style="mix-blend-mode:overlay"><path d="M375,289.78l21,17.35c.53.44,2.58,1.08,2.95.15l10.13-25.37-2.94-.15,21.17,17.18c.56.45,2.54,1.06,2.95.15l11.15-24.93-2.94-.15,19.87,18.69c.43.41,2.45,1,2.87.31l13.41-23.77-2.86-.31,17.84,20.65c.43.5,2.39,1,2.86.31l15.88-22.19-3-.48,15.55,22.43c.45.66,2.39,1.17,3,.48L542,269.68l-3-.48L552.27,293a2.51,2.51,0,0,0,3,.49l19.82-18.76-3-.48,11.31,24.84c.37.82,2.36,1,3,.48l21.19-17.2-3-.48,9.57,25.56c.33.88,2.38.93,3,.48l22.24-15.83c.55-.39-2.16-1.37-2.95-.81l-22.23,15.83,3,.48-9.58-25.56c-.31-.84-2.4-1-3-.48l-21.18,17.2,3,.48-11.31-24.84c-.36-.78-2.41-1-3-.48l-19.82,18.75,3,.49L542,269.35c-.39-.7-2.42-1.13-3-.48l-18.06,20.45,3,.48-15.55-22.43c-.42-.6-2.46-1.22-3-.48l-15.87,22.19,2.86.3-17.84-20.64c-.39-.46-2.47-1-2.86-.31l-13.42,23.76,2.87.31-19.88-18.68c-.52-.5-2.55-1-2.95-.15l-11.15,24.92,3,.15-21.18-17.18c-.53-.43-2.57-1.08-2.95-.15l-10.13,25.37,2.94.15-21-17.35c-.64-.53-3.63-.5-2.78.2Z" style="fill:#fef7e8"/></g><path d="M487.56,226.14c-13.64,5.05-26.45,13.39-34.54,25.47s-10.85,28.23-4.91,41.51a48.35,48.35,0,0,0,11.67,15.51c18.71,17.31,45.15,23.57,70.59,25.38s51.15-.14,76.34,3.77c4.5.69,9.09,1.62,12.92,4.07s6.82,6.72,6.5,11.25c-.34,4.92-4.3,8.81-8.48,11.42-7.4,4.6-16.07,6.66-24.66,8.12-46.84,7.94-94.73-.23-142.23-.54-16.54-.11-33.62.65-49-5.37a59,59,0,0,1-27.08-21.55c-1.87-2.75-3.54-5.75-3.93-9.05a24.82,24.82,0,0,1,.66-7.52q3.12-16.08,7-32c1.15-4.76,2.39-9.58,4.87-13.81a45.9,45.9,0,0,1,8.07-9.54c13.18-12.72,28.28-23.69,45.25-30.56s35.93-9.5,53.83-5.66" style="fill:#00dde0;mix-blend-mode:multiply"/></g><path d="M539.15,377.3c-1.14,3.29-2.65,8.16-.64,11.45,1.21,2,4.49,2.82,6.61,2.1,2.92-1,3.81-5.49,3.63-8.15s-1.28-6.55-3.72-8c-1.95-1.17-4.78-1.12-5.5,1.32-.94,3.21-1.17,8.08.38,11.14.81,1.6,3.8,3.27,5.32,1.62,2.33-2.52,1.26-7.75,0-10.44-.36-.77-4-1.76-4-.58l0,7.56c0,1.3,4.06,1.82,4.06.81l0-7.56-4-.58c1.21,2.61,2.13,7.35-.08,9.83l1.53-.28-.43-.05,2.22.83c-2.3-2.21-1.54-6.88-1.17-9.68.06-.48.48-1.68.33-2,.21-.46-.09-.59-.91-.37l.4.7c.39,1.5,1.23,2.74,1.45,4.34.19,1.32-.37,8.24-2.39,7.22-.87-.44-.5-4.08-.39-5a25.86,25.86,0,0,1,1.41-5.4c.34-1-3.65-2-4.07-.81Z" style="fill:#2e0000"/><path d="M457.8,378.91a23.63,23.63,0,0,1,1.5,6.3c.06,1,.28,3.43-.46,4.06-.27.69-.53.7-.8,0a6.37,6.37,0,0,1-.73-1.29,9.92,9.92,0,0,1-.9-5.47c.2-1.77,1.12-5.53,3-6.39l-2.47.47c1,.06,1.06,5.17,1.09,5.91.11,2,.17,5-1.44,6.56l1.72-.65-.43.05,2.06.32c-2.21-2.48-1.31-7.2-.1-9.83l-4.06.35,0,7.56c0,1.05,4.1.7,4.1-.57l0-7.56c0-1.19-3.69-.46-4.06.34-1.27,2.75-2.29,7.84,0,10.45,1.48,1.68,4.51.24,5.36-1.39,1.58-3.05,1.36-7.94.39-11.14-.71-2.35-3.21-2.54-5.23-1.63-4.91,2.2-5.92,14.11-.43,16.26,2.08.81,5.43.08,6.67-1.87,2-3.26.5-8.21-.63-11.45-.43-1.23-4.44-.38-4.11.57Z" style="fill:#2e0000"/><path d="M512.07,405.51c1.45-7.1-7.73-7.38-10.84-6.63s-7.63,1.7-7,7.21" style="fill:none;stroke:#f1c58d;stroke-linecap:round;stroke-linejoin:round;stroke-width:1.91477942098637px;mix-blend-mode:multiply"/><path d="M534,443.76a4.5,4.5,0,0,1-.67.93,32.68,32.68,0,0,1-10.14,8.19,40.8,40.8,0,0,1-10,3.79,38.39,38.39,0,0,1-5.62.79c-.07,0-.11,0-.16,0-8.09.29-15.65-.19-22.94-3.66-5.46-2.6-8.33-6.7-10.61-11.71-1.12-2.47-1.91-5.43-1.21-8s1.19-4.19,4.22-5.59,4.72-2.08,9.56-1c7.44,1.71,15.33,6.06,24.18,2.86,4.61-1.67,9.41-5.21,14.65-5.41s8.71,3.5,10.22,7.55S535.66,440.1,534,443.76Z" style="fill:#200"/><path d="M533.83,443.8c.34.17-.36.62-.59.92-2.44,3.29-6.5,6.22-10.1,8.16a40.62,40.62,0,0,1-10.06,3.79c-.61.17-1,.12-1.8.26s-3.13.41-3.65.5l-.27.05c-8.28.44-15.51-.39-23-3.58a5.43,5.43,0,0,0,.8-.4c3.12-2.08,5.66-4.11,9.28-5.68,9.8-4.26,20-6.73,31-6.11A22.59,22.59,0,0,1,533.83,443.8Z" style="fill:#cb1d00"/><path d="M476.87,428c-3,1.41-3.69,3.56-4.29,6.14a11.1,11.1,0,0,0,1.26,8c9.81,17.37,31.15,18.67,49,10.74a25.26,25.26,0,0,0,10.33-8.26,12.86,12.86,0,0,0,2.16-12A10.62,10.62,0,0,0,525.21,425c-4.9.12-10.62,4.28-14.47,5.36-9.89,2.78-16.56-1.11-24.36-2.81C481.36,426.48,479.92,426.57,476.87,428Z" style="fill:none;stroke:#7e1200;stroke-miterlimit:10;stroke-width:2.03107870031371px"/><path d="M569.45,362.12c-1.31-2.16-1.51-5.17-3.73-6.69-7.73-5.3-19.78-7-26-6.9a6.47,6.47,0,0,0-4,1.52l-4.65,3.84Z" style="fill:#2e0000"/><path d="M435.21,362.12c1.3-2.16,1.51-5.17,3.73-6.69,7.73-5.3,19.78-7,26-6.9a6.44,6.44,0,0,1,4,1.52l4.65,3.84Z" style="fill:#2e0000"/><path d="M603.57,396.18a19.78,19.78,0,0,0-1.22,5.32c-.18,1.56.1,3.3-.61,4.75-.86,1.74-2.87,2.56-4.74,3.07s-3.9.9-5.31,2.23A108.71,108.71,0,0,1,599,394.31a17.79,17.79,0,0,1,2.91-4.35c2.75-2.8,9.69-4.51,12.5-1C606.48,389,604.39,394.19,603.57,396.18Z" style="fill:#e8ac6b;mix-blend-mode:multiply"/><path d="M457.77,602.9a212.44,212.44,0,0,0,3.71,33.92c1,5.43,1.73,11.06,3.43,16.32a74.29,74.29,0,0,0,7,14.54c.45.77,3.21.9,2.86.31a77.74,77.74,0,0,1-6.72-13.71c-1.8-5.21-2.56-10.8-3.54-16.21a213.17,213.17,0,0,1-3.84-34.53c0-.95-2.91-1.34-2.9-.64Z" style="fill:#fff"/><path d="M468.87,601.09c3.1,21.27,6.15,42.67,12.58,63.24.25.78,3.16.88,2.88,0-6.4-20.46-9.42-41.74-12.51-62.91-.14-.94-3.05-1-2.95-.33Z" style="fill:#fff"/><g style="clip-path:url(#clip-path-2)"><path d="M173.66,386.87S151.4,386.12,162,428s131,73.83,131,73.83,37.12,8.71,43.27-31.31c12.59-46.15,4.25-68.6,4.25-68.6Z" style="fill:#2e0000"/><path d="M361.12,696.91c-1,12.75-10.57,20.06-19.42,24.15a62,62,0,0,1-15.26,4.68l1.38,99.69c-3.42,1.13-6.92,2.23-10.47,3.23-2.23.62-4.49,1.21-6.8,1.8s-4.5,1.13-6.81,1.61c-46.27,10.15-95,6.49-136.81-12.21l2-21.71,7.93-87.53-.4-.18L168.9,707l-28.25-13c33.73-50.43,14.69-132.42,73.28-167,31.2-18.42,86.72-6.32,103.31,11.11,36.35,38.2,35.75,88.74,35.75,88.74Z" style="fill:#ef4a90"/><polygon points="213.92 518.55 208.55 538.1 305 534.96 301.23 508.95 213.92 518.55" style="fill:#ef4a90"/><polygon points="199.13 563.73 176.43 710.44 168.9 706.97 199.13 563.73" style="fill:#ef4a90;opacity:0.5;mix-blend-mode:multiply"/><g style="mix-blend-mode:multiply"><path d="M300.87,526.5c.06,7.09-11.38,9.83-16.55,11.26-10,2.79-20.4,4.23-30.63,6a88.2,88.2,0,0,0-12.36,2.73.62.62,0,0,0-.4.39c-1.32,13.45-1.79,27-2.44,40.5q-1.26,26.08-2.22,52.18c-.23,6.3-.46,12.6-.6,18.9l4.48,1,.8-38.39,1.26-60.65.3-14.09c0-1.21-2.4-1.49-3.21-1.5a52.86,52.86,0,0,1-11.56-1.57c-6.51-1.67-13.07-5.1-15-12-.36-1.25-4.8-1.75-4.42-.45,2.25,7.85,10.26,11.8,17.56,13.83a59.37,59.37,0,0,0,15.39,2.22l-3.2-1.5-.8,38.39L236,644.41l-.29,14.08c0,1.44,4.46,2.08,4.48,1,.55-25.38,1.8-50.76,3.07-76.11.55-11.22,1.05-22.47,2-33.67.1-1.07-.05-1.32.58-1.67a12.63,12.63,0,0,1,3.24-.82c2.57-.57,5.17-1,7.76-1.49,6.57-1.15,13.16-2.19,19.7-3.5,6.74-1.35,13.67-2.84,20-5.63,3.71-1.64,8.88-4.39,8.85-9.1,0-1.46-4.49-2.05-4.49-1Z" style="fill:#ef4a90"/></g><path d="M326.44,725.74l1.38,99.69c-3.42,1.13-6.92,2.23-10.47,3.23-2.23.62-4.49,1.21-6.8,1.8s-4.5,1.13-6.81,1.61c-46.27,10.15-95,6.49-136.81-12.21l2-21.71c57.13,30.08,150.71,24.92,148.34-60.78-54.37-30.6-53.12-79.68-53.12-79.68l46.64,28.56L315,578,320,674.26l21.68,46.8A62,62,0,0,1,326.44,725.74Z" style="fill:#ef4a90;opacity:0.5;mix-blend-mode:multiply"/><path d="M159.19,427.18c6.37-3.58,16.51,12.58,16.73,13.2-.48-4.87-2-42.27-2.26-47.13-.12-1.54-5.6,4.81-5.67,3.28-.15-3.37-.18-7,1.77-9.74,2.5-3.42,7.19-3.81,11.29-3.94,2.35-.05,4.65-.13,7-.18,46.42-1.19,93.29-.93,138.38,10.39,1.46.35,2.87.71,4.34,1.1a22.72,22.72,0,0,1,6.76,2.69l-7.63-.72c.19,14.18,2.08,28.77.35,42.86,1.62-4.81,10.36-7.43,14.39-4.77,2.56,1.7,4.07,4.79,4.94,7.89,2.49,8.75.77,18.95-4.65,25.77a21.54,21.54,0,0,1-17.09,8.25c-.47,0-.94,0-1.42-.06-1.66,6.7-3.66,13.32-7.09,19.2-7.23,12.36-32.62,46.21-74.5,46.21-21.86,0-45.7-20-55.22-38-4.85-9.16-12.16-36.62-12.16-36.62s-7.68,3.41-11.41.88C161.88,465,151.12,431.73,159.19,427.18Z" style="fill:#824e3e"/><path d="M168.25,401.09c.23,4.87.49,5.27.85,10.13,0,0,70.3-34.09,154.77,3.42,3.93,1.74,9.13,3.88,9.3-2.66.15-5.35-1.33-15.4-5.14-17.93-.52-.33-1-.66-1.6-1-31.11-19.29-74.92-18.37-111.4-15.93-9.22.61-18.64,1.74-27,5.54a25.06,25.06,0,0,0-2.46,1.16,41.76,41.76,0,0,0-15.89,14.71C169.16,399.37,168.71,400.23,168.25,401.09Z" style="fill:#f1c58d;opacity:0.5;mix-blend-mode:multiply"/><path d="M336.68,453.06a17.86,17.86,0,0,0-1,4.74c-.13,1.38.15,2.91-.46,4.2-.73,1.56-2.49,2.32-4.14,2.8s-3.43.87-4.65,2.07a95.21,95.21,0,0,1,6.12-15.37,16.22,16.22,0,0,1,2.5-3.9c2.38-2.53,8.49-4.16,11-1.08C339.13,446.64,337.37,451.3,336.68,453.06Z" style="fill:#f1c58d;opacity:0.5;mix-blend-mode:multiply"/><path d="M210.39,439.46a18.33,18.33,0,0,1,1.43,6.35,9.71,9.71,0,0,1-.41,2.79c-.5,1.68-.84.76-1.42-.46a8.81,8.81,0,0,1-.75-5c.22-1.74.94-4.73,2.6-5.55l-1.61.14.58.06-1.52-.58c1.3.93,1.25,4.15,1.32,5.68a14,14,0,0,1-.05,2.42,8.4,8.4,0,0,1-.35,1.58c-.92.94-1.05,1.39-.37,1.33l2.45.61c-2-2.14-1.14-6.36-.13-8.68l-3.63-.5.15,6.69c0,1.13,3.65,1.42,3.63.5l-.15-6.69c0-1.11-3.21-1.46-3.63-.5-1.09,2.52-1.78,6.95.32,9.26a2.89,2.89,0,0,0,4.6-.57c1.68-3.26,1.67-13.93-4.49-12-2.43.77-3.4,5.26-3.43,7.4,0,2.43.85,5.61,3.11,6.88,1.83,1,4.85,1,6.09-.91,1.84-2.84.25-7.39-.79-10.2-.36-1-3.93-1.11-3.55-.1Z" style="fill:#2e0000"/><path d="M276.71,438.17c-.95,2.92-2.23,7.17-.49,10,1.16,1.92,4,2,5.84,1.16,2.4-1.12,3.3-4.31,3.26-6.78,0-2.27-1.16-6.68-3.58-7.6-6.37-2.41-5.82,8.66-4.3,11.77a2.94,2.94,0,0,0,4.53.94c2.38-2.07,1.26-7.2.16-9.48-.44-.92-3.65-.64-3.63.49l.12,6.69c0,.94,3.65.62,3.63-.5l-.12-6.68-3.63.49c1.1,2.28,2.12,6.48.24,8.68l2.44-.6c.67.13.52-.3-.44-1.28a8.13,8.13,0,0,1-.41-1.56,13,13,0,0,1-.15-2.41c0-1.57-.21-4.74,1.08-5.74l-1.52.57.58-.07-1.62-.15c1.72.77,2.56,3.7,2.84,5.43a8.76,8.76,0,0,1-.71,5.36,7.19,7.19,0,0,1-.6,1q.75.75-.42-.36a6.67,6.67,0,0,1-.7-2.7,17.41,17.41,0,0,1,1.15-6.84c.34-1.05-3.23-.9-3.55.09Z" style="fill:#2e0000"/><path d="M235.78,471.73a8.95,8.95,0,0,1,12-8.16" style="fill:none;stroke:#2e0000;stroke-linecap:round;stroke-linejoin:round;stroke-width:1.83306839731093px;mix-blend-mode:multiply"/><path d="M281.53,492.65c-1.63-3.79-5.39-8.21-10.35-6.75-7.8,2.29-12,7.52-41.06,5-5.15-.45-7.75,5-8.42,9s1.21,7.06,3.57,10.14a4.84,4.84,0,0,0,.83.74,32.45,32.45,0,0,0,11.42,5.63A41.26,41.26,0,0,0,248,518a40.25,40.25,0,0,0,5.61-.37h.16l.2,0-.16-1.3c.23.41.45.82.67,1.24h.21l.16,0a40.15,40.15,0,0,0,5.52-1,41.32,41.32,0,0,0,9.79-4,32.56,32.56,0,0,0,9.74-8.2,4.94,4.94,0,0,0,.62-.92C282.05,499.79,283.16,496.44,281.53,492.65Z" style="fill:#200"/><path d="M280.37,503.4a22.73,22.73,0,0,0-8.37-1.65c-6.44-.07-30.62,2.88-36.84,4.49-2.91.76-7.89,5.06-7.62,5.3,3,2.59,8.14,3.57,12,4.67A41.4,41.4,0,0,0,250,517.76c.63,0,1-.1,1.79-.12.51,0,1.73-.11,2.65-.18v.06l.25,0h0l.28-.06.23-.05h.51l.24,0v-.06c.9-.15,2.11-.35,2.61-.46.74-.17,1.16-.14,1.76-.32a41.58,41.58,0,0,0,9.8-4c3.49-2,7.4-5,9.7-8.19C280,504,280.72,503.54,280.37,503.4Z" style="fill:#cb1d00"/><path d="M281.51,492.7a10.36,10.36,0,0,0-10.28-6.82c-4.84.32-12.07,8.46-41.16,5-4.8-.57-7.9,4.92-8.34,9.08a11.94,11.94,0,0,0,4.44,10.77,24.84,24.84,0,0,0,11.61,5.66,55.77,55.77,0,0,0,16.14.94,1.05,1.05,0,0,1,.51-.06,55.18,55.18,0,0,0,15.45-4.79,25,25,0,0,0,9.91-8.28A11.93,11.93,0,0,0,281.51,492.7Z" style="fill:none;stroke:#7e1200;stroke-miterlimit:10;stroke-width:1.80729132737038px"/><path d="M188.7,427c.76-2.1.47-4.76,2.24-6.44,6.21-5.86,17.54-8.45,23.37-8.49a5.84,5.84,0,0,1,3.68,1.28c1.71,1.36,2.54,2,4.18,3.44C208.27,419.36,201.5,421.44,188.7,427Z" style="fill:#2e0000"/><path d="M306.9,426c-.76-2.1-.46-4.76-2.24-6.44-6.21-5.86-17.53-8.45-23.37-8.49a5.85,5.85,0,0,0-3.68,1.29c-1.7,1.35-2.54,2-4.18,3.43C287.33,418.39,294.1,420.48,306.9,426Z" style="fill:#2e0000"/><path d="M168.11,448.23a17,17,0,0,1,0,4.27c-.13,1.25-.59,2.66-.34,3.81a3.5,3.5,0,0,0,2.7,2.41c1.18.39,2.48.68,3.22,1.73a83.89,83.89,0,0,0-2.14-13.79,11.5,11.5,0,0,0-1.27-3.46c-1.4-2.22-5.8-3.5-8.26-.62C167.31,442.46,167.88,446.64,168.11,448.23Z" style="fill:#f1c58d;opacity:0.5;mix-blend-mode:multiply"/><path d="M342.24,405.57s-87.81-45.92-183.51-1.95c0,0-.09-.5-.24-1.43-6.67-43.1,23.47-83.68,67-89.73a203.56,203.56,0,0,1,46.26-1.41c46.39,4.23,79.08,47.08,70.86,92.57Z" style="fill:#ef4a90"/><g style="clip-path:url(#clip-path-3)"><path d="M371.6,327.07c.2.69.38,1.38.57,2.07q3.76,14,6.83,28.07a21,21,0,0,1,.69,6.54,17.66,17.66,0,0,1-3.46,7.93c-5.85,8.47-1.19,46.43-11,50.24-13.76,5.38-42.33-26.28-57.19-25.95-42.59.95-127.24,27.87-169.37,21.8-7.72-1.12-10.67-17.59-17.54-21.4-3.89-2.16,29.68-9.87,29-14.06-.59-3.89,1.78-7.6,5-9.76s7.32-3,11.31-3.71c22.36-3.76,53.16-10.51,76-12.49s38.93.23,55.34-15.24a41.87,41.87,0,0,0,10.17-13.9,31.61,31.61,0,0,0,2.43-10.95" style="fill:#ef4a90;opacity:0.5;mix-blend-mode:multiply"/></g><path d="M345,698.84c-.11-28.77-52.77-48.5-42.87-56s18.59-21.23,12.66-24.31-18.82,12.76-18.82,12.76-4.53-9.51-2.57-13.92,10.11-21,1.82-22.1-12.56,22.16-12.56,22.16,9-27.36,2-28.7-11.87,26.64-11.87,26.64,7.77-24.83-.16-26.38-11.05,29.11-11.05,29.11,1.42-23.16-3.79-22.83-14.18,37.22,2.57,59.65c3.17,4.53,7,12.92,11.48,22.72,7.83,17.14,19.54,29.35,32.53,39.11C334.81,739.67,345,717,345,698.84Z" style="fill:#824e3e"/><path d="M264.11,633.33s-2.36-6.69-2.49-17.43" style="fill:none;stroke:#f1c58d;stroke-linecap:round;stroke-linejoin:round;stroke-width:2.19249874526477px;mix-blend-mode:multiply"/><path d="M273.47,630.79s-1.38-18.41,2.12-27.83" style="fill:none;stroke:#f1c58d;stroke-linecap:round;stroke-linejoin:round;stroke-width:2.19249874526477px;mix-blend-mode:multiply"/><path d="M281.62,631.29a185.68,185.68,0,0,1,3.79-24.24" style="fill:none;stroke:#f1c58d;stroke-linecap:round;stroke-linejoin:round;stroke-width:2.19249874526477px;mix-blend-mode:multiply"/><line x1="294.44" y1="636.28" x2="295.94" y2="631.3" style="fill:none;stroke:#f1c58d;stroke-linecap:round;stroke-linejoin:round;stroke-width:2.19249874526477px;mix-blend-mode:multiply"/><path d="M182.87,699.64c-1.93-25.77-12.55-43.26-28-62.44,6.79-9.72,5.91-21.05,6.81-33.19.19-2.52,15-17.5,7.07-19.75s-14.7,11.39-17.58,17.19c2.92-4.07,15.85-22.31,8.8-25.87S144.45,592,142.28,596.77c2.71-4.08,13.75-20.89,6.06-24.23S132.47,591.07,131,596.27c-1.92-1,11.91-23.58.5-20.72S112.22,616.88,120.15,632c1.56,3,3.69,16.41,4.5,23.28,1.4,12,1.76,32.1,7.11,43.06,11.16,22.87,31.82,36.93,48.77,14.38C184,708.14,183.08,702.42,182.87,699.64Z" style="fill:#824e3e"/><path d="M128.86,612.09s-.5-7.08,2.24-17.46" style="fill:none;stroke:#f1c58d;stroke-linecap:round;stroke-linejoin:round;stroke-width:2.19249874526477px;mix-blend-mode:multiply"/><path d="M137.84,612.38S142.14,594,148,585.89" style="fill:none;stroke:#f1c58d;stroke-linecap:round;stroke-linejoin:round;stroke-width:2.19249874526477px;mix-blend-mode:multiply"/><path d="M146.27,614.8a186.73,186.73,0,0,1,10.13-22.36" style="fill:none;stroke:#f1c58d;stroke-linecap:round;stroke-linejoin:round;stroke-width:2.19249874526477px;mix-blend-mode:multiply"/><path d="M332.07,670.89s5.81,55.65-12.92,55.76c32,19.8,52.81-9.42,42-29.74C351.43,678.75,332.07,670.89,332.07,670.89Z" style="fill:#ef4a90"/></g><line x1="16.58" y1="722.32" x2="983.42" y2="722.32" style="fill:none;stroke:#200;stroke-linecap:round;stroke-linejoin:round;stroke-width:2.77063262310521px"/></g></g></svg>